<svg xmlns="http://www.w3.org/2000/svg" viewBox="0 0 500 500"><g id="freepik--Screen--inject-503"><path d="M327.62,118.37V414.84a4.33,4.33,0,0,1-4.39,4.34h-138a3.84,3.84,0,0,1-2.76-1.11,4,4,0,0,1-1.17-2.87V118a3.5,3.5,0,0,1,3.36-3.63h39.19a2.76,2.76,0,0,1,2.52,1.76l1.63,4a2.75,2.75,0,0,0,2.52,1.75h48a2.73,2.73,0,0,0,2.52-1.72l1.63-4a2.76,2.76,0,0,1,2.52-1.77h38.62A4,4,0,0,1,327.62,118.37Z" style="fill:#198257"></path><rect x="199.51" y="123.6" width="2.04" height="2.72" transform="translate(401.06 249.92) rotate(180)" style="fill:#fff;opacity:0.6000000000000001;isolation:isolate"></rect><rect x="196.19" y="122.69" width="2.04" height="3.62" transform="translate(394.41 249.01) rotate(180)" style="fill:#fff;opacity:0.6000000000000001;isolation:isolate"></rect><rect x="192.86" y="121.79" width="2.04" height="4.53" transform="translate(387.77 248.11) rotate(180)" style="fill:#fff;opacity:0.6000000000000001;isolation:isolate"></rect><rect x="189.54" y="120.88" width="2.04" height="5.44" transform="translate(381.12 247.2) rotate(180)" style="fill:#fff;opacity:0.6000000000000001;isolation:isolate"></rect><rect x="307.73" y="122.61" width="1.21" height="2.72" style="fill:#fff;opacity:0.6000000000000001;isolation:isolate"></rect><rect x="309.77" y="121.62" width="9.63" height="4.7" transform="translate(629.18 247.94) rotate(180)" style="fill:#fff;opacity:0.6000000000000001;isolation:isolate"></rect><g style="opacity:0.1;isolation:isolate"><path d="M247.14,121.88,205,279.64h0l-.47,1.78h0l-.76,2.85h0l-.48,1.77-22,82.38v-99.7l41.21-154.36h1.34a2.75,2.75,0,0,1,2.52,1.76l1.63,4a2.74,2.74,0,0,0,2.52,1.75Z" style="fill:#fff"></path><polygon points="327.62 202.45 327.62 302.15 301.36 400.55 300.72 402.94 296.38 419.18 269.77 419.18 274.1 402.95 274.8 400.35 278.27 387.31 278.97 384.7 280.37 379.49 281.06 376.88 282.45 371.67 283.14 369.06 305.04 287.04 305.04 287.03 306.05 283.25 306.05 283.24 327.62 202.45" style="fill:#fff"></polygon><path d="M261.56,121.88,219.71,278.66l-.26.94-2.29,8.59-.25.94L182.49,418.07a4,4,0,0,1-1.17-2.87V400l29.61-110.91.25-.94,2.29-8.59.25-.94,41.86-156.78Z" style="fill:#fff"></path></g><rect x="181.32" y="133.7" width="146.3" height="272.35" style="fill:#fff;opacity:0.30000000000000004;isolation:isolate"></rect><path d="M299.47,253.38h0a5.1,5.1,0,0,0,5.1-5.1V167.83a5.1,5.1,0,0,0-5.1-5.09h0a5.1,5.1,0,0,0-5.1,5.09v80.45A5.1,5.1,0,0,0,299.47,253.38Z" style="fill:#198257"></path><path d="M299.47,251.38a3.1,3.1,0,0,1-3.1-3.1V167.83a3.1,3.1,0,0,1,6.2,0v80.45A3.1,3.1,0,0,1,299.47,251.38Z" style="opacity:0.30000000000000004;isolation:isolate"></path><circle cx="299.47" cy="175.76" r="7.39" transform="translate(78.01 443.21) rotate(-80.78)" style="fill:#198257"></circle><path d="M269.47,253.38h0a5.1,5.1,0,0,0,5.1-5.1V167.83a5.1,5.1,0,0,0-5.1-5.09h0a5.1,5.1,0,0,0-5.1,5.09v80.45A5.1,5.1,0,0,0,269.47,253.38Z" style="fill:#198257"></path><path d="M269.47,251.38a3.1,3.1,0,0,1-3.1-3.1V167.83a3.1,3.1,0,0,1,6.2,0v80.45A3.1,3.1,0,0,1,269.47,251.38Z" style="opacity:0.30000000000000004;isolation:isolate"></path><circle cx="269.47" cy="235.76" r="7.39" transform="translate(-6.41 463.98) rotate(-80.78)" style="fill:#198257"></circle><path d="M239.47,253.38h0a5.1,5.1,0,0,0,5.1-5.1V167.83a5.1,5.1,0,0,0-5.1-5.09h0a5.1,5.1,0,0,0-5.1,5.09v80.45A5.1,5.1,0,0,0,239.47,253.38Z" style="fill:#198257"></path><path d="M239.47,251.38a3.1,3.1,0,0,1-3.1-3.1V167.83a3.1,3.1,0,0,1,6.2,0v80.45A3.1,3.1,0,0,1,239.47,251.38Z" style="opacity:0.30000000000000004;isolation:isolate"></path><circle cx="239.47" cy="195.76" r="7.39" transform="translate(7.88 400.78) rotate(-80.78)" style="fill:#198257"></circle><path d="M209.47,253.38h0a5.1,5.1,0,0,0,5.1-5.1V167.83a5.1,5.1,0,0,0-5.1-5.09h0a5.1,5.1,0,0,0-5.1,5.09v80.45A5.1,5.1,0,0,0,209.47,253.38Z" style="fill:#198257"></path><path d="M209.47,251.38a3.1,3.1,0,0,1-3.1-3.1V167.83a3.1,3.1,0,0,1,6.2,0v80.45A3.1,3.1,0,0,1,209.47,251.38Z" style="opacity:0.30000000000000004;isolation:isolate"></path><circle cx="209.47" cy="225.76" r="7.39" transform="translate(-46.93 396.36) rotate(-80.78)" style="fill:#198257"></circle><circle cx="299.47" cy="175.76" r="7.39" transform="translate(78.01 443.21) rotate(-80.78)" style="fill:#fff;opacity:0.6000000000000001"></circle><path d="M299.47,181.15a5.39,5.39,0,1,1,5.39-5.39A5.4,5.4,0,0,1,299.47,181.15Z" style="fill:#fff;opacity:0.6000000000000001"></path><circle cx="269.47" cy="235.76" r="7.39" transform="translate(-6.41 463.98) rotate(-80.78)" style="fill:#fff;opacity:0.6000000000000001"></circle><path d="M269.47,241.15a5.39,5.39,0,1,1,5.39-5.39A5.4,5.4,0,0,1,269.47,241.15Z" style="fill:#fff;opacity:0.6000000000000001"></path><circle cx="239.47" cy="195.76" r="7.39" transform="translate(7.88 400.78) rotate(-80.78)" style="fill:#fff;opacity:0.6000000000000001"></circle><path d="M239.47,201.15a5.39,5.39,0,1,1,5.39-5.39A5.4,5.4,0,0,1,239.47,201.15Z" style="fill:#fff;opacity:0.6000000000000001"></path><circle cx="209.47" cy="225.76" r="7.39" transform="translate(-46.93 396.36) rotate(-80.78)" style="fill:#fff;opacity:0.6000000000000001"></circle><path d="M209.47,231.15a5.39,5.39,0,1,1,5.39-5.39A5.4,5.4,0,0,1,209.47,231.15Z" style="fill:#fff;opacity:0.6000000000000001"></path><rect x="188.39" y="271.56" width="132.16" height="123.8" rx="2.75" style="fill:#198257"></rect><rect x="188.39" y="271.56" width="132.16" height="123.8" rx="2.75" style="opacity:0.30000000000000004;isolation:isolate"></rect><path d="M242.55,351.81v10.64L248,363a28.25,28.25,0,0,0,4.08,9.82l-3.52,4.26,7.53,7.52,4.25-3.52a28.24,28.24,0,0,0,9.83,4.09l.51,5.48h10.65l.51-5.48a28.24,28.24,0,0,0,9.83-4.09l4.25,3.52,7.53-7.52L300,372.79a28.46,28.46,0,0,0,4.09-9.82l5.48-.52V351.81l-5.48-.52a28.51,28.51,0,0,0-4.09-9.83l3.52-4.25L296,329.68l-4.25,3.52a28.41,28.41,0,0,0-9.83-4.08l-.51-5.48H270.71l-.51,5.48a28.41,28.41,0,0,0-9.83,4.08l-4.25-3.52-7.53,7.53,3.52,4.25a28.51,28.51,0,0,0-4.09,9.83ZM276,342.72a14.41,14.41,0,1,1-14.41,14.41A14.41,14.41,0,0,1,276,342.72Z" style="fill:#fff;opacity:0.6000000000000001"></path><path d="M199.41,321.25v8.34l4.3.4a22.06,22.06,0,0,0,3.2,7.7L204.15,341l5.9,5.89,3.33-2.76a22.24,22.24,0,0,0,7.7,3.21l.41,4.29h8.34l.4-4.29a22.16,22.16,0,0,0,7.7-3.21l3.33,2.76,5.9-5.89-2.76-3.34a22.08,22.08,0,0,0,3.21-7.7l4.29-.4v-8.34l-4.29-.41a22.24,22.24,0,0,0-3.21-7.7l2.76-3.33-5.9-5.9-3.33,2.76a22.33,22.33,0,0,0-7.7-3.2l-.4-4.3h-8.34l-.41,4.3a22.42,22.42,0,0,0-7.7,3.2l-3.33-2.76-5.9,5.9,2.76,3.33a22.22,22.22,0,0,0-3.2,7.7Zm26.25-7.12a11.29,11.29,0,1,1-11.29,11.29A11.29,11.29,0,0,1,225.66,314.13Z" style="fill:#fff;opacity:0.4"></path><path d="M245.92,295.5v7l3.61.34a18.89,18.89,0,0,0,2.69,6.47l-2.32,2.79,5,5,2.79-2.32a18.89,18.89,0,0,0,6.47,2.69l.34,3.61h7l.34-3.61a18.81,18.81,0,0,0,6.47-2.69l2.8,2.32,4.95-5-2.32-2.79a18.89,18.89,0,0,0,2.69-6.47l3.61-.34v-7l-3.61-.34a18.81,18.81,0,0,0-2.69-6.47l2.32-2.8-4.95-4.95-2.8,2.32a18.43,18.43,0,0,0-6.47-2.69l-.34-3.61h-7l-.34,3.61a18.51,18.51,0,0,0-6.47,2.69l-2.79-2.32-5,4.95,2.32,2.8a18.81,18.81,0,0,0-2.69,6.47Zm22.05-6a9.49,9.49,0,1,1-9.49,9.48A9.49,9.49,0,0,1,268,289.52Z" style="fill:#fff;opacity:0.2"></path><polygon points="233.69 323.26 227.81 317.38 219.78 319.54 217.62 327.57 223.5 333.45 231.54 331.3 233.69 323.26" style="fill:#fff;opacity:0.6000000000000001"></polygon><polygon points="277.33 346.91 267.83 350.89 266.54 361.11 274.74 367.35 284.24 363.36 285.54 353.14 277.33 346.91" style="fill:#fff;opacity:0.8"></polygon><polygon points="273.87 302.41 273.87 295.59 267.97 292.18 262.06 295.59 262.06 302.41 267.97 305.82 273.87 302.41" style="fill:#fff;opacity:0.4"></polygon></g><g id="freepik--character-1--inject-503"><g id="freepik--group--inject-503"><path d="M199.53,274.19l-70.14-78.1a17.08,17.08,0,0,0-18.67-23.93,1.2,1.2,0,0,0-.69,2l9.2,10.25a1.49,1.49,0,0,1,.31,1.47l-2,6.11a1.51,1.51,0,0,1-1.12,1l-6.29,1.33a1.51,1.51,0,0,1-1.43-.47l-9.2-10.24a1.2,1.2,0,0,0-2,.48,17.07,17.07,0,0,0,21.79,21.11l70.14,78.1a17.08,17.08,0,0,0,18.66,23.93,1.2,1.2,0,0,0,.7-2L199.56,295a1.51,1.51,0,0,1-.31-1.48l2-6.1a1.49,1.49,0,0,1,1.12-1l6.28-1.33a1.5,1.5,0,0,1,1.43.47l9.21,10.24a1.19,1.19,0,0,0,2-.48,17.08,17.08,0,0,0-21.79-21.11Z" style="fill:#198257"></path><path d="M199.53,274.19l-70.14-78.1a17.08,17.08,0,0,0-18.67-23.93,1.2,1.2,0,0,0-.69,2l9.2,10.25a1.49,1.49,0,0,1,.31,1.47l-2,6.11a1.51,1.51,0,0,1-1.12,1l-6.29,1.33a1.51,1.51,0,0,1-1.43-.47l-9.2-10.24a1.2,1.2,0,0,0-2,.48,17.07,17.07,0,0,0,21.79,21.11l70.14,78.1a17.08,17.08,0,0,0,18.66,23.93,1.2,1.2,0,0,0,.7-2L199.56,295a1.51,1.51,0,0,1-.31-1.48l2-6.1a1.49,1.49,0,0,1,1.12-1l6.28-1.33a1.5,1.5,0,0,1,1.43.47l9.21,10.24a1.19,1.19,0,0,0,2-.48,17.08,17.08,0,0,0-21.79-21.11Z" style="fill:#fff;opacity:0.7000000000000001;isolation:isolate"></path><path d="M120.29,182.16s-20.83,2.73-23.53,6.44-2.85,7.16,9.46,10.7l3.61-2.63s-5.11-1.95-4.51-3.15,15-.75,15-.75Z" style="fill:#e4897b"></path><path d="M128.11,181.89,125.21,192l-4.87.74-10.2,1.55-.3-4.08-.59-8.06S119.27,180.14,128.11,181.89Z" style="fill:#198257"></path><path d="M123,186.17l-2.63,6.58-10.2,1.55-.3-4.08C115,186.19,123,186.17,123,186.17Z" style="opacity:0.2;isolation:isolate"></path><polygon points="120.97 411.73 129.07 412.58 129.49 407.88 130.59 395.09 122.48 394.23 121.25 408.36 120.97 411.73" style="fill:#e4897b"></polygon><polygon points="80.48 410.7 88.34 410.7 88.42 408.92 88.42 408.7 88.83 397.3 88.83 397.07 89 392.7 81.13 392.7 80.48 410.7" style="fill:#e4897b"></polygon><polygon points="122.48 394.23 121.25 408.36 129.49 407.88 130.59 395.09 122.48 394.23" style="opacity:0.2;isolation:isolate"></polygon><polygon points="80.53 409.7 80.55 409.7 88.42 408.7 88.42 408.7 88.83 397.7 88.83 397.7 80.94 398.33 80.55 409.36 80.53 409.7" style="opacity:0.2;isolation:isolate"></polygon><path d="M89.43,410.23H79.88a.68.68,0,0,0-.67.54l-1.55,7a1.16,1.16,0,0,0,.9,1.37,1.07,1.07,0,0,0,.25,0c3.09-.05,5.34-.24,9.22-.24,2.39,0,9.6.25,12.9.25s3.73-3.26,2.38-3.56c-6.06-1.32-10.62-3.15-12.56-4.89A1.88,1.88,0,0,0,89.43,410.23Z" style="fill:#263238"></path><path d="M129.93,410h-9.55a.68.68,0,0,0-.67.54l-1.55,7a1.16,1.16,0,0,0,.9,1.37,1.07,1.07,0,0,0,.25,0c3.09-.05,5.34-.24,9.22-.24,2.39,0,9.6.25,12.9.25s3.73-3.26,2.38-3.56c-6.06-1.32-10.62-3.15-12.56-4.89A1.88,1.88,0,0,0,129.93,410Z" style="fill:#263238"></path><path d="M131.34,406.7H119.81S116.5,307,104,273.5c1.53,62.33-13.16,134.2-13.16,134.2H79.48s5.21-56.27,5.21-80.88c0-43.61-12-64.9-.32-93.12h41.72C136.31,295.25,140.24,338.7,131.34,406.7Z" style="fill:#263238"></path><polygon points="132.63 403.45 132.07 406.7 118.44 406.7 118.44 403.7 132.63 403.45" style="fill:#198257"></polygon><polygon points="92.18 404.7 90.87 407.7 79.44 407.7 78.69 404.7 92.18 404.7" style="fill:#198257"></polygon><path d="M162,185.55c-.31.25-.62.48-.94.69a10.84,10.84,0,0,1-6.21,1.85,11.64,11.64,0,0,1-1.67-.14,9.89,9.89,0,0,1-8.34-8.51c-.79-5.54,2-9.17,6.3-15.68a10.66,10.66,0,0,1,18.15.21C173.6,171,167.55,180.93,162,185.55Z" style="fill:#e4897b"></path><path d="M154.88,188.09a11.64,11.64,0,0,1-1.67-.14,9.9,9.9,0,0,1-7.06-4.77,11.54,11.54,0,0,1,2.68-1.29A15.36,15.36,0,0,1,154.88,188.09Z" style="opacity:0.2;isolation:isolate"></path><path d="M136.31,186.87c1,5.08,9.31,9.63,9.31,9.63s5.66,2.2,5.76,0c-2.44-2.51-2.82-4.8-2.15-6.87a10.09,10.09,0,0,1,2.07-3.37,17.76,17.76,0,0,1,1.54-1.59l-4.2-13.81C146.48,176.32,141.77,185.81,136.31,186.87Z" style="fill:#e4897b"></path><path d="M172.79,164.92c-.85-4.74-3.25-5-3.25-5-.23-3.78-9.15-7.6-15-6.37s-9.82,6.38-11.42,11.12c-2.32,6.91-.92,15.48-.92,15.48h0c4.73,3.6,9.65,4.26,11.14,1.6s5.19-3.58,5.19-3.58c2.25,1.95,5.81,0,5.81,0s4-1.39,4.73-5.33S173.5,168.92,172.79,164.92Z" style="fill:#263238"></path><path d="M158.37,176a5,5,0,0,0,0,4.32c.87,1.48,3,.31,4.24-1.71,1.06-1.79,1.94-4.77.35-5.47S159.17,174,158.37,176Z" style="fill:#e4897b"></path><path d="M159.39,153.54c8.77-2.61,15.83,11.78,15.49,19.41-.29,6.2-6.8,5.45-6.8,5.45s3.6-.24,3.25-4.59c0,0-1.56,5.33-5.05,1.83s.65-11.84.65-11.84Z" style="fill:#263238"></path><path d="M103.07,314.25a284.63,284.63,0,0,0-4.41-28.78c-11.81-14.84-5.36-28.54-5.36-28.54C94.88,266.46,104,273.5,104,273.5,104.36,286.91,103.94,300.76,103.07,314.25Z" style="opacity:0.2;isolation:isolate"></path><path d="M136.29,184.59s2.53-1.88,7.22.89a15.29,15.29,0,0,1,6.22,8.07Z" style="fill:#198257"></path><path d="M130.59,253.38s0-24.33,25.44-53.78c0,0-11.42-15.94-27.92-17.71,0,0-30.46,10.45-47.05,55Z" style="fill:#198257"></path><path d="M156,199.6q-4,4.68-7.25,9.16a114.37,114.37,0,0,0-10,16.55c-8.18,16.66-8.18,28.07-8.18,28.07l-49.54-16.5c16.59-44.54,47.05-55,47.05-55C144.61,183.66,156,199.6,156,199.6Z" style="fill:#fff;opacity:0.6000000000000001;isolation:isolate"></path><path d="M130.9,249.89c-.11.82-.18,1.5-.22,2L81.73,235.12c.24-.63.49-1.25.74-1.86Z" style="fill:#198257"></path><path d="M131.76,244.94c-.15.71-.29,1.37-.4,2-17-6.55-36.27-13.86-47.2-17.64.27-.62.55-1.22.83-1.82C97.18,231.67,118.28,239.73,131.76,244.94Z" style="fill:#198257"></path><path d="M133.05,239.92c-.2.67-.38,1.32-.55,1.94C119,236,98.75,227.49,86.89,223.57c.31-.61.62-1.2.93-1.79C99.9,225.8,119.74,234.15,133.05,239.92Z" style="fill:#198257"></path><path d="M134.72,234.79c-.23.66-.46,1.3-.67,1.92-13.14-6.34-32-15-44.12-18.71.34-.6.69-1.19,1-1.76C103.31,220.06,121.75,228.53,134.72,234.79Z" style="fill:#198257"></path><path d="M136.79,229.62c-.28.63-.54,1.25-.78,1.87-12.57-6.72-30-15.36-42.72-18.91.39-.59.79-1.18,1.19-1.75C107.35,214.54,124.41,223,136.79,229.62Z" style="fill:#198257"></path><path d="M139.23,224.39c-.31.62-.61,1.24-.9,1.85-11.82-7-27.9-15.46-41.29-18.94.44-.59.88-1.16,1.33-1.73C111.86,209.23,127.59,217.52,139.23,224.39Z" style="fill:#198257"></path><path d="M142,219.17c-.35.61-.68,1.21-1,1.8-11-7.08-25.78-15.32-39.79-18.84.5-.58,1-1.14,1.52-1.69C116.78,204.13,131.25,212.18,142,219.17Z" style="fill:#198257"></path><path d="M145.16,214.06c-.37.56-.72,1.12-1.07,1.68-10.08-7.09-23.7-15-38.13-18.63.57-.56,1.13-1.1,1.69-1.62C121.88,199.29,135.22,207.08,145.16,214.06Z" style="fill:#198257"></path><path d="M148.64,209l-1.15,1.62c-9.15-7-21.63-14.57-36.16-18.33.66-.54,1.3-1.06,1.93-1.55C127.45,194.64,139.63,202.07,148.64,209Z" style="fill:#198257"></path><path d="M152.45,203.92c-.42.53-.83,1.05-1.23,1.58a91.63,91.63,0,0,0-33.71-17.9c.77-.52,1.51-1,2.22-1.43A94.17,94.17,0,0,1,152.45,203.92Z" style="fill:#198257"></path><path d="M156,199.6l-.79.93a82,82,0,0,0-30.42-17.2c1.23-.61,2.16-1,2.71-1.22a83.69,83.69,0,0,1,25.65,14.07h0A40.61,40.61,0,0,1,156,199.6Z" style="fill:#198257"></path><path d="M148.78,208.76a114.37,114.37,0,0,0-10,16.55A25,25,0,0,1,148,205.5Z" style="opacity:0.2;isolation:isolate"></path><path d="M156,207.12V238L168,259.42l4.91,5.47s-5.74,3.54-7.32,1.27a37,37,0,0,1-3.16-6.74s-11.86-15.93-13.72-19.73-2.53-26.81-2.53-26.81Z" style="fill:#e4897b"></path><path d="M156,199.6c1.88,5.2,1.87,22.92,1.87,22.92l-13.33,1.17-1.06-7a24.42,24.42,0,0,1,4.58-12.61A11.13,11.13,0,0,1,156,199.6Z" style="fill:#198257"></path></g></g></svg>