<svg xmlns="http://www.w3.org/2000/svg" viewBox="0 0 500 500"><g id="freepik--Building--inject-44"><g id="freepik--building--inject-44"><g id="freepik--Wall--inject-44"><polygon points="151.24 388.4 56.37 333.63 56.32 155.54 151.19 210.32 151.24 388.4" style="fill:#198257"></polygon><g style="opacity:0.30000000000000004"><polygon points="151.24 388.4 56.37 333.63 56.32 155.54 151.19 210.32 151.24 388.4" style="fill:#fff"></polygon></g><polygon points="151.24 407.29 151.24 394.07 56.37 339.29 56.37 352.51 151.24 407.29" style="fill:#37474f"></polygon><polygon points="151.24 407.29 151.24 394.07 56.37 339.29 56.37 352.51 151.24 407.29" style="fill:#198257"></polygon><g style="opacity:0.30000000000000004"><polygon points="151.24 407.29 151.24 394.07 56.37 339.29 56.37 352.51 151.24 407.29"></polygon></g></g><g id="freepik--wall--inject-44"><polygon points="151.24 388.4 278.83 314.74 278.79 136.65 151.19 210.32 151.24 388.4" style="fill:#198257"></polygon><g style="opacity:0.5"><polygon points="151.24 388.4 278.83 314.74 278.79 136.65 151.19 210.32 151.24 388.4" style="fill:#fff"></polygon></g><polygon points="151.24 407.29 151.24 394.07 278.83 320.4 278.83 333.63 151.24 407.29" style="fill:#198257"></polygon><g style="opacity:0.15"><polygon points="151.24 407.29 151.24 394.07 278.83 320.4 278.83 333.63 151.24 407.29"></polygon></g></g><g id="freepik--Cornice--inject-44"><polyline points="151.24 390.29 53.09 333.63 53.09 339.29 151.24 395.96 151.24 390.29" style="fill:#198257"></polyline><g style="opacity:0.4"><polyline points="151.24 390.29 53.09 333.63 53.09 339.29 151.24 395.96 151.24 390.29" style="fill:#fff"></polyline></g><polygon points="282.1 314.74 282.1 320.4 151.24 395.96 151.24 390.29 282.1 314.74" style="fill:#198257"></polygon><g style="opacity:0.6000000000000001"><polygon points="282.1 314.74 282.1 320.4 151.24 395.96 151.24 390.29 282.1 314.74" style="fill:#fff"></polygon></g><polygon points="278.83 312.85 278.83 314.74 151.24 388.4 54.73 332.68 53.09 333.63 151.24 390.29 282.1 314.74 278.83 312.85" style="fill:#198257"></polygon><g style="opacity:0.8"><polygon points="278.83 312.85 278.83 314.74 151.24 388.4 54.73 332.68 53.09 333.63 151.24 390.29 282.1 314.74 278.83 312.85" style="fill:#fff"></polygon></g><polygon points="151.24 390.29 151.24 388.4 56.37 333.63 56.37 331.74 53.09 333.63 151.24 390.29" style="fill:#198257"></polygon><g style="opacity:0.6000000000000001"><polygon points="151.24 390.29 151.24 388.4 56.37 333.63 56.37 331.74 53.09 333.63 151.24 390.29" style="fill:#fff"></polygon></g></g><g id="freepik--Door--inject-44"><g id="freepik--door--inject-44"><polygon points="256.02 288.65 256.02 327.01 232.86 340.38 232.85 302.03 256.02 288.65" style="fill:#198257"></polygon><polygon points="250.26 323.68 256.81 327.46 232.85 341.29 232.85 333.73 250.26 323.68" style="fill:#198257"></polygon><polygon points="250.26 323.68 256.81 327.46 232.85 341.29 232.85 333.73 250.26 323.68" style="fill:#fafafa"></polygon><polygon points="250.26 323.68 232.85 333.73 232.85 302.03 250.26 291.95 250.26 323.68" style="fill:#198257"></polygon><polygon points="256.02 327.01 256.81 327.46 256.81 288.2 256.02 288.65 256.02 327.01" style="fill:#198257"></polygon><g style="opacity:0.4"><polygon points="256.02 327.01 256.81 327.46 256.81 288.2 256.02 288.65 256.02 327.01" style="fill:#fff"></polygon></g><g style="opacity:0.1"><polygon points="256.02 327.01 256.81 327.46 256.81 288.2 256.02 288.65 256.02 327.01"></polygon></g><polygon points="256.81 327.46 259.9 325.67 259.9 282.85 229.76 300.25 229.76 343.07 232.85 341.29 232.85 302.03 256.81 288.2 256.81 327.46" style="fill:#198257"></polygon><g style="opacity:0.7000000000000001"><polygon points="256.81 327.46 259.9 325.67 259.9 282.85 229.76 300.25 229.76 343.07 232.85 341.29 232.85 302.03 256.81 288.2 256.81 327.46" style="fill:#fff"></polygon></g><polygon points="259.9 282.85 229.76 300.25 228.99 299.8 259.13 282.4 259.9 282.85" style="fill:#198257"></polygon><g style="opacity:0.85"><polygon points="259.9 282.85 229.76 300.25 228.99 299.8 259.13 282.4 259.9 282.85" style="fill:#fff"></polygon></g><polygon points="229.76 343.07 229.76 300.25 228.99 299.8 228.99 342.63 229.76 343.07" style="fill:#198257"></polygon><g style="opacity:0.6000000000000001"><polyline points="228.99 299.8 228.99 342.63 229.76 343.07 229.76 300.25" style="fill:#fff"></polyline></g></g><g id="freepik--door--inject-44"><polygon points="240.02 297.89 240.02 329.6 250.26 323.68 250.26 291.98 240.02 297.89" style="fill:#455a64"></polygon><path d="M240.42,312.62a.82.82,0,0,1,.37-.63c.2-.12.36,0,.36.21a.81.81,0,0,1-.22.51V313a.27.27,0,0,1-.12.21l0,0c-.07,0-.13,0-.13-.07v-.3C240.51,312.89,240.42,312.79,240.42,312.62Z" style="fill:#263238"></path><polygon points="244.07 297.16 241.46 298.67 241.46 310.67 244.07 309.16 244.07 297.16" style="fill:#198257"></polygon><polygon points="248.41 294.66 245.79 296.17 245.79 308.16 248.41 306.65 248.41 294.66" style="fill:#198257"></polygon><polygon points="244.07 309.16 244.49 309.4 241.46 311.15 241.46 310.67 244.07 309.16" style="fill:#263238"></polygon><polygon points="248.41 306.65 248.82 306.89 245.79 308.64 245.38 308.4 248.41 306.65" style="fill:#263238"></polygon><polygon points="248.41 306.65 248.41 294.65 248.82 294.41 248.82 306.89 248.41 306.65" style="fill:#37474f"></polygon><polygon points="244.49 309.4 245.79 308.64 245.79 296.17 244.49 296.92 244.49 309.4" style="fill:#455a64"></polygon><polygon points="244.49 309.4 244.07 309.16 244.07 297.16 244.49 296.92 244.49 309.4" style="fill:#37474f"></polygon><g style="opacity:0.1"><polygon points="244.49 311.39 241.46 313.14 241.46 326.56 244.49 324.82 244.49 311.39"></polygon></g><polygon points="244.2 312.35 242.13 313.55 242.13 325.38 244.2 324.19 244.2 312.35" style="fill:#455a64"></polygon><polygon points="241.46 313.14 242.13 313.55 242.13 325.38 241.46 326.56 241.46 313.14" style="fill:#37474f"></polygon><polygon points="244.49 311.39 244.2 312.35 244.2 324.19 244.49 324.82 244.49 311.39" style="fill:#37474f"></polygon><polygon points="244.49 324.82 244.2 324.19 242.13 325.38 241.46 326.56 244.49 324.82" style="fill:#263238"></polygon><g style="opacity:0.1"><polygon points="248.82 308.88 245.79 310.63 245.79 324.06 248.82 322.31 248.82 308.88"></polygon></g><polygon points="248.53 309.85 246.46 311.04 246.46 322.87 248.53 321.68 248.53 309.85" style="fill:#455a64"></polygon><polygon points="245.79 310.63 246.46 311.04 246.46 322.87 245.79 324.06 245.79 310.63" style="fill:#37474f"></polygon><polygon points="248.82 308.88 248.53 309.85 248.53 321.68 248.82 322.31 248.82 308.88" style="fill:#37474f"></polygon><polygon points="248.82 322.31 248.53 321.68 246.46 322.87 245.79 324.06 248.82 322.31" style="fill:#263238"></polygon></g><polygon points="239.57 329.85 240.02 329.6 240.02 297.89 239.58 298.15 239.57 329.85" style="fill:#263238"></polygon><g id="freepik--door--inject-44"><path d="M233.19,301.83l-.34.2v31.7l6.71-3.88V298.14Z" style="fill:#455a64"></path><path d="M238.4,313.83a.81.81,0,0,1,.36-.64c.2-.11.36,0,.36.22a.81.81,0,0,1-.22.51v.3a.26.26,0,0,1-.12.21l0,0c-.07,0-.12,0-.12-.07v-.31C238.49,314.09,238.4,314,238.4,313.83Z" style="fill:#263238"></path><polygon points="233.38 303.32 233.38 315.32 232.85 315.63 232.85 303.63 233.38 303.32" style="fill:#198257"></polygon><polygon points="237.72 300.82 235.1 302.33 235.1 314.33 237.72 312.82 237.72 300.82" style="fill:#198257"></polygon><polygon points="233.8 315.56 232.85 316.11 232.85 315.63 233.38 315.32 233.8 315.56" style="fill:#263238"></polygon><polygon points="237.72 312.82 238.13 313.06 235.1 314.8 234.69 314.56 237.72 312.82" style="fill:#263238"></polygon><polygon points="237.72 312.82 237.72 300.81 238.13 300.57 238.13 313.06 237.72 312.82" style="fill:#37474f"></polygon><polygon points="233.8 315.56 235.1 314.8 235.1 302.33 233.8 303.09 233.8 315.56" style="fill:#455a64"></polygon><polygon points="233.8 315.56 233.38 315.32 233.38 303.32 233.8 303.09 233.8 315.56" style="fill:#37474f"></polygon><g style="opacity:0.1"><polygon points="233.8 317.55 233.8 330.98 232.86 331.52 232.86 318.09 233.8 317.55"></polygon></g><polygon points="233.51 318.51 233.51 330.35 232.86 330.73 232.86 318.89 233.51 318.51" style="fill:#455a64"></polygon><polygon points="233.8 317.55 233.51 318.52 233.51 330.35 233.8 330.98 233.8 317.55" style="fill:#37474f"></polygon><polygon points="233.8 330.98 232.86 331.52 232.86 330.73 233.51 330.35 233.8 330.98" style="fill:#263238"></polygon><g style="opacity:0.1"><polygon points="238.13 315.05 235.1 316.79 235.1 330.22 238.13 328.47 238.13 315.05"></polygon></g><polygon points="237.84 316.01 235.77 317.2 235.77 329.04 237.84 327.84 237.84 316.01" style="fill:#455a64"></polygon><polygon points="235.1 316.79 235.77 317.2 235.77 329.04 235.1 330.22 235.1 316.79" style="fill:#37474f"></polygon><polygon points="238.13 315.05 237.84 316.01 237.84 327.84 238.13 328.47 238.13 315.05" style="fill:#37474f"></polygon><polygon points="238.13 328.47 237.84 327.84 235.77 329.04 235.1 330.22 238.13 328.47" style="fill:#263238"></polygon></g><g style="opacity:0.1"><polygon points="250.26 291.98 250.26 295.52 232.85 305.6 232.85 302.03 250.26 291.98"></polygon></g></g><g id="freepik--Stairs--inject-44"><polygon points="234.67 342.13 234.67 347.79 233.03 348.74 233.03 360.07 251.02 370.46 251.02 366.68 247.75 364.79 247.75 361.01 244.48 359.13 244.48 355.35 241.21 353.46 241.21 349.68 237.94 347.79 237.94 344.01 234.67 342.13" style="fill:#ebebeb"></polygon><polygon points="256.6 327.57 233.03 341.18 237.94 344.01 261.52 330.41 256.6 327.57" style="fill:#fafafa"></polygon><polygon points="261.52 334.19 237.94 347.79 241.21 349.68 264.79 336.08 261.52 334.19" style="fill:#fafafa"></polygon><polygon points="264.79 339.86 241.21 353.46 244.48 355.35 268.06 341.75 264.79 339.86" style="fill:#fafafa"></polygon><polygon points="268.06 345.52 244.48 359.13 247.75 361.01 271.33 347.41 268.06 345.52" style="fill:#fafafa"></polygon><polygon points="271.33 351.19 247.75 364.79 251.02 366.68 274.6 353.08 271.33 351.19" style="fill:#fafafa"></polygon><polygon points="261.52 330.41 237.94 344.01 237.94 347.79 261.52 334.19 261.52 330.41" style="fill:#f0f0f0"></polygon><polygon points="264.79 336.08 241.21 349.68 241.21 353.46 264.79 339.86 264.79 336.08" style="fill:#f0f0f0"></polygon><polygon points="268.06 341.75 244.48 355.35 244.48 359.13 268.06 345.52 268.06 341.75" style="fill:#f0f0f0"></polygon><polygon points="274.6 353.08 251.02 366.68 251.02 370.46 274.6 356.86 274.6 353.08" style="fill:#f0f0f0"></polygon><polygon points="271.33 347.41 247.75 361.01 247.75 364.79 271.33 351.19 271.33 347.41" style="fill:#f0f0f0"></polygon></g><g id="freepik--Window--inject-44"><polygon points="187.77 333.31 187.77 355.72 170.87 365.47 170.87 343.07 187.77 333.31" style="fill:#198257"></polygon><g style="opacity:0.25"><polygon points="187.77 333.31 187.77 355.72 170.87 365.47 170.87 343.07 187.77 333.31"></polygon></g><polygon points="185.49 354.2 170.87 362.64 170.87 343.07 185.49 334.63 185.49 354.2" style="fill:#198257"></polygon><g style="opacity:0.9500000000000001"><polygon points="185.49 354.2 170.87 362.64 170.87 343.07 185.49 334.63 185.49 354.2" style="fill:#fff"></polygon></g><polygon points="187.77 333.31 185.49 334.63 185.49 354.2 187.77 355.72 187.77 333.31" style="fill:#198257"></polygon><polygon points="168.76 366.69 189.88 354.5 190.93 355.1 169.8 367.3 168.76 366.69" style="fill:#198257"></polygon><g style="opacity:0.8"><polygon points="168.76 366.69 189.88 354.5 190.93 355.1 169.8 367.3 168.76 366.69" style="fill:#fff"></polygon></g><polygon points="169.8 367.3 169.8 369.74 190.93 357.54 190.93 355.1 169.8 367.3" style="fill:#198257"></polygon><g style="opacity:0.6000000000000001"><polygon points="169.8 367.3 169.8 369.74 190.93 357.54 190.93 355.1 169.8 367.3" style="fill:#fff"></polygon></g><polygon points="168.76 366.69 168.76 369.13 169.8 369.74 169.8 367.3 168.76 366.69" style="fill:#198257"></polygon><g style="opacity:0.4"><polygon points="168.76 366.69 168.76 369.13 169.8 369.74 169.8 367.3 168.76 366.69" style="fill:#fff"></polygon></g><polygon points="177.72 358.69 177.72 339.11 178.95 338.41 178.95 357.98 177.72 358.69" style="fill:#455a64"></polygon></g><g id="freepik--window--inject-44"><polygon points="217.26 316.29 217.26 338.69 200.36 348.45 200.36 326.05 217.26 316.29" style="fill:#198257"></polygon><g style="opacity:0.25"><polygon points="217.26 316.29 217.26 338.69 200.36 348.45 200.36 326.05 217.26 316.29"></polygon></g><polygon points="214.98 337.18 200.36 345.62 200.36 326.05 214.98 317.61 214.98 337.18" style="fill:#198257"></polygon><g style="opacity:0.9500000000000001"><polygon points="214.98 337.18 200.36 345.62 200.36 326.05 214.98 317.61 214.98 337.18" style="fill:#fff"></polygon></g><polygon points="217.26 316.29 214.98 317.61 214.98 337.18 217.26 338.69 217.26 316.29" style="fill:#198257"></polygon><polygon points="198.24 349.67 219.37 337.47 220.41 338.08 199.29 350.27 198.24 349.67" style="fill:#198257"></polygon><g style="opacity:0.8"><polygon points="198.24 349.67 219.37 337.47 220.41 338.08 199.29 350.27 198.24 349.67" style="fill:#fff"></polygon></g><polygon points="199.29 350.27 199.29 352.71 220.41 340.52 220.41 338.08 199.29 350.27" style="fill:#198257"></polygon><g style="opacity:0.6000000000000001"><polygon points="199.29 350.27 199.29 352.71 220.41 340.52 220.41 338.08 199.29 350.27" style="fill:#fff"></polygon></g><polygon points="198.24 349.67 198.24 352.11 199.29 352.71 199.29 350.27 198.24 349.67" style="fill:#198257"></polygon><g style="opacity:0.4"><polygon points="198.24 349.67 198.24 352.11 199.29 352.71 199.29 350.27 198.24 349.67" style="fill:#fff"></polygon></g><polygon points="207.21 341.66 207.21 322.09 208.44 321.38 208.44 340.96 207.21 341.66" style="fill:#455a64"></polygon></g><g id="freepik--window--inject-44"><polygon points="115.25 333.63 115.25 356.03 132.16 365.79 132.16 343.38 115.25 333.63" style="fill:#198257"></polygon><g style="opacity:0.25"><polygon points="115.25 333.63 115.25 356.03 132.16 365.79 132.16 343.38 115.25 333.63"></polygon></g><polygon points="117.53 354.52 132.16 362.96 132.16 343.38 117.53 334.94 117.53 354.52" style="fill:#198257"></polygon><g style="opacity:0.9500000000000001"><polygon points="117.53 354.52 132.16 362.96 132.16 343.38 117.53 334.94 117.53 354.52" style="fill:#fff"></polygon></g><polygon points="115.25 333.63 117.53 334.94 117.53 354.52 115.25 356.03 115.25 333.63" style="fill:#198257"></polygon><polygon points="134.27 367.01 113.14 354.81 112.1 355.41 133.22 367.61 134.27 367.01" style="fill:#198257"></polygon><g style="opacity:0.8"><polygon points="134.27 367.01 113.14 354.81 112.1 355.41 133.22 367.61 134.27 367.01" style="fill:#fff"></polygon></g><polygon points="133.22 367.61 133.22 370.05 112.1 357.85 112.1 355.41 133.22 367.61" style="fill:#198257"></polygon><g style="opacity:0.6000000000000001"><polygon points="133.22 367.61 133.22 370.05 112.1 357.85 112.1 355.41 133.22 367.61" style="fill:#fff"></polygon></g><polygon points="134.27 367.01 134.27 369.45 133.22 370.05 133.22 367.61 134.27 367.01" style="fill:#198257"></polygon><g style="opacity:0.4"><polygon points="134.27 367.01 134.27 369.45 133.22 370.05 133.22 367.61 134.27 367.01" style="fill:#fff"></polygon></g><polygon points="125.3 359 125.3 339.43 124.08 338.72 124.08 358.29 125.3 359" style="fill:#455a64"></polygon></g><g id="freepik--window--inject-44"><polygon points="75.45 310.65 75.45 333.05 92.35 342.81 92.35 320.4 75.45 310.65" style="fill:#198257"></polygon><g style="opacity:0.25"><polygon points="75.45 310.65 75.45 333.05 92.35 342.81 92.35 320.4 75.45 310.65"></polygon></g><polygon points="77.73 331.54 92.35 339.98 92.35 320.4 77.73 311.96 77.73 331.54" style="fill:#198257"></polygon><g style="opacity:0.9500000000000001"><polygon points="77.73 331.54 92.35 339.98 92.35 320.4 77.73 311.96 77.73 331.54" style="fill:#fff"></polygon></g><polygon points="75.45 310.65 77.73 311.96 77.73 331.54 75.45 333.05 75.45 310.65" style="fill:#198257"></polygon><polygon points="94.47 344.03 73.34 331.83 72.29 332.43 93.42 344.63 94.47 344.03" style="fill:#198257"></polygon><g style="opacity:0.8"><polygon points="94.47 344.03 73.34 331.83 72.29 332.43 93.42 344.63 94.47 344.03" style="fill:#fff"></polygon></g><polygon points="93.42 344.63 93.42 347.07 72.29 334.87 72.29 332.43 93.42 344.63" style="fill:#198257"></polygon><g style="opacity:0.6000000000000001"><polygon points="93.42 344.63 93.42 347.07 72.29 334.87 72.29 332.43 93.42 344.63" style="fill:#fff"></polygon></g><polygon points="94.47 344.03 94.47 346.47 93.42 347.07 93.42 344.63 94.47 344.03" style="fill:#198257"></polygon><g style="opacity:0.4"><polygon points="94.47 344.03 94.47 346.47 93.42 347.07 93.42 344.63 94.47 344.03" style="fill:#fff"></polygon></g><polygon points="85.5 336.02 85.5 316.45 84.27 315.74 84.27 335.31 85.5 336.02" style="fill:#455a64"></polygon></g><g id="freepik--Balcony--inject-44"><g id="freepik--shadow--inject-44" style="opacity:0.15"><polygon points="261.82 270.19 227.52 290 227.52 282.22 261.82 262.41 261.82 270.19"></polygon></g><g id="freepik--floor--inject-44"><polygon points="227.52 282.22 261.82 262.41 270.94 267.67 236.64 287.49 227.52 282.22" style="fill:#fafafa"></polygon><polygon points="227.52 282.22 227.52 283.54 236.64 288.8 236.64 287.49 227.52 282.22" style="fill:#e0e0e0"></polygon><polygon points="236.64 287.49 270.94 267.67 270.94 268.99 236.64 288.8 236.64 287.49" style="fill:#f0f0f0"></polygon></g><g id="freepik--door--inject-44"><polygon points="256.1 227.35 256.1 265.71 232.93 279.09 232.92 240.74 256.1 227.35" style="fill:#198257"></polygon><polygon points="254.26 264.49 256.88 266.16 232.92 279.99 232.93 276.8 254.26 264.49" style="fill:#198257"></polygon><g style="opacity:0.8"><polygon points="254.26 264.49 256.88 266.16 232.92 279.99 232.93 276.8 254.26 264.49" style="fill:#fff"></polygon></g><polygon points="254.26 264.49 232.93 276.8 232.92 240.74 254.26 228.41 254.26 264.49" style="fill:#198257"></polygon><g style="opacity:0.9500000000000001"><polygon points="254.26 264.49 232.93 276.8 232.92 240.74 254.26 228.42 254.26 264.49" style="fill:#fff"></polygon></g><g style="opacity:0.1"><polygon points="254.26 228.42 254.26 231.98 232.92 244.3 232.92 240.74 254.26 228.42"></polygon></g><polygon points="245.32 233.58 244.51 234.04 244.51 272.39 245.32 271.94 245.32 233.58" style="fill:#198257"></polygon><g style="opacity:0.2"><polygon points="245.32 233.58 244.51 234.04 244.51 272.39 245.32 271.94 245.32 233.58"></polygon></g><polygon points="244.51 234.04 244.51 272.39 243.71 271.93 243.71 234.5 244.51 234.04" style="fill:#198257"></polygon><g style="opacity:0.4"><polygon points="244.51 234.04 244.51 272.39 243.71 271.93 243.71 234.5 244.51 234.04"></polygon></g><polygon points="256.1 265.71 256.88 266.16 256.88 226.91 256.1 227.35 256.1 265.71" style="fill:#198257"></polygon><g style="opacity:0.4"><polygon points="256.1 265.71 256.88 266.16 256.88 226.91 256.1 227.35 256.1 265.71" style="fill:#fff"></polygon></g><g style="opacity:0.1"><polygon points="256.1 265.71 256.88 266.16 256.88 226.91 256.1 227.35 256.1 265.71"></polygon></g><polygon points="256.88 266.16 259.97 264.38 259.97 221.55 229.83 238.95 229.83 281.77 232.92 279.99 232.92 240.74 256.88 226.91 256.88 266.16" style="fill:#198257"></polygon><g style="opacity:0.7000000000000001"><polygon points="256.88 266.16 259.97 264.38 259.97 221.55 229.83 238.95 229.83 281.77 232.92 279.99 232.92 240.74 256.88 226.91 256.88 266.16" style="fill:#fff"></polygon></g><polygon points="259.97 221.55 229.83 238.95 229.06 238.51 259.2 221.11 259.97 221.55" style="fill:#198257"></polygon><g style="opacity:0.85"><polygon points="259.97 221.55 229.83 238.95 229.06 238.51 259.2 221.11 259.97 221.55" style="fill:#fff"></polygon></g><polygon points="229.83 281.77 229.83 238.95 229.06 238.51 229.06 281.33 229.83 281.77" style="fill:#198257"></polygon><g style="opacity:0.6000000000000001"><polyline points="229.06 238.51 229.06 281.33 229.83 281.77 229.83 238.95" style="fill:#fff"></polyline></g></g><g id="freepik--Railing--inject-44"><path d="M270.51,251.85a.55.55,0,0,0-.29-.48l-.27-.16h0l-8.75-5h0a.21.21,0,0,0-.2,0,.92.92,0,0,0-.33.72.38.38,0,0,0,.12.32h0l.27.16h0l7.75,4.38" style="fill:#455a64"></path><path d="M269.68,253.41l-8.77-5a.11.11,0,0,0-.12,0,.36.36,0,0,0-.16.28.12.12,0,0,0,0,.11l9,5.19Z" style="fill:#455a64"></path><g style="opacity:0.2"><polygon points="269.68 255.3 260.63 250.05 260.63 261.39 269.68 266.63 269.68 255.3"></polygon></g></g><g id="freepik--railing--inject-44"><g style="opacity:0.2"><polygon points="236.46 274.47 269.68 255.3 269.68 266.63 236.46 285.8 236.46 274.47"></polygon></g><g style="opacity:0.2"><polygon points="236.8 274.47 227.35 268.99 227.35 280.32 236.8 285.8 236.8 274.47"></polygon></g><path d="M236.65,272.49l-9-5.2a.17.17,0,0,0-.12,0,.37.37,0,0,0-.16.29c0,.05,0,.09,0,.1l9,5.2Z" style="fill:#455a64"></path><path d="M252.82,263.14l16.55-9.55a.11.11,0,0,1,.11,0,.39.39,0,0,1,.17.29.1.1,0,0,1,0,.1l-16.55,9.55Z" style="fill:#455a64"></path><path d="M253.07,261.54v15.57a.15.15,0,0,1-.07.1.38.38,0,0,1-.33,0,.15.15,0,0,1-.07-.1V261.54Z" style="fill:#37474f"></path><path d="M236.61,272.49l16-9.26a.09.09,0,0,1,.11,0,.37.37,0,0,1,.17.28.12.12,0,0,1-.05.11l-16,9.26Z" style="fill:#455a64"></path><path d="M269.8,251.9v15.57a.12.12,0,0,1-.07.09.33.33,0,0,1-.33,0,.12.12,0,0,1-.07-.09V251.9Z" style="fill:#37474f"></path><path d="M236.86,270.9v15.57s0,.07-.07.1a.38.38,0,0,1-.33,0,.12.12,0,0,1-.06-.1V270.9Z" style="fill:#37474f"></path><path d="M268.82,251.86l-32.19,18.57-8.75-4.95h0a.19.19,0,0,0-.2,0,.88.88,0,0,0-.33.71.38.38,0,0,0,.12.33h0l8.88,5a.64.64,0,0,0,.27.07.54.54,0,0,0,.28-.08l33.32-19.22a.58.58,0,0,0,.28-.49" style="fill:#455a64"></path></g></g><g id="freepik--balcony--inject-44"><g id="freepik--shadow--inject-44" style="opacity:0.15"><polygon points="261.82 212.85 227.52 232.66 227.52 224.88 261.82 205.07 261.82 212.85"></polygon></g><g id="freepik--floor--inject-44"><polygon points="227.52 224.88 261.82 205.06 270.94 210.33 236.64 230.14 227.52 224.88" style="fill:#fafafa"></polygon><polygon points="227.52 224.88 227.52 226.19 236.64 231.46 236.64 230.14 227.52 224.88" style="fill:#e0e0e0"></polygon><polygon points="236.64 230.14 270.94 210.33 270.94 211.65 236.64 231.46 236.64 230.14" style="fill:#f0f0f0"></polygon></g><g id="freepik--door--inject-44"><polygon points="256.1 170.01 256.1 208.37 232.93 221.75 232.92 183.39 256.1 170.01" style="fill:#198257"></polygon><polygon points="254.26 207.14 256.88 208.82 232.92 222.65 232.93 219.46 254.26 207.14" style="fill:#198257"></polygon><g style="opacity:0.8"><polygon points="254.26 207.14 256.88 208.82 232.92 222.65 232.93 219.46 254.26 207.14" style="fill:#fff"></polygon></g><polygon points="254.26 207.14 232.93 219.46 232.92 183.39 254.26 171.07 254.26 207.14" style="fill:#198257"></polygon><g style="opacity:0.9500000000000001"><polygon points="254.26 207.14 232.93 219.46 232.92 183.39 254.26 171.07 254.26 207.14" style="fill:#fff"></polygon></g><g style="opacity:0.1"><polygon points="254.26 171.07 254.26 174.64 232.92 186.96 232.92 183.39 254.26 171.07"></polygon></g><polygon points="245.32 176.23 244.51 176.7 244.51 215.05 245.32 214.59 245.32 176.23" style="fill:#198257"></polygon><g style="opacity:0.2"><polygon points="245.32 176.23 244.51 176.7 244.51 215.05 245.32 214.59 245.32 176.23"></polygon></g><polygon points="244.51 176.7 244.51 215.05 243.71 214.59 243.71 177.16 244.51 176.7" style="fill:#198257"></polygon><g style="opacity:0.4"><polygon points="244.51 176.7 244.51 215.05 243.71 214.59 243.71 177.16 244.51 176.7"></polygon></g><polygon points="256.1 208.37 256.88 208.82 256.88 169.56 256.1 170.01 256.1 208.37" style="fill:#198257"></polygon><g style="opacity:0.4"><polygon points="256.1 208.37 256.88 208.82 256.88 169.56 256.1 170.01 256.1 208.37" style="fill:#fff"></polygon></g><g style="opacity:0.1"><polygon points="256.1 208.37 256.88 208.82 256.88 169.56 256.1 170.01 256.1 208.37"></polygon></g><polygon points="256.88 208.82 259.97 207.03 259.97 164.21 229.83 181.61 229.83 224.43 232.92 222.65 232.92 183.39 256.88 169.56 256.88 208.82" style="fill:#198257"></polygon><g style="opacity:0.7000000000000001"><polygon points="256.88 208.82 259.97 207.03 259.97 164.21 229.83 181.61 229.83 224.43 232.92 222.65 232.92 183.39 256.88 169.56 256.88 208.82" style="fill:#fff"></polygon></g><polygon points="259.97 164.21 229.83 181.61 229.06 181.16 259.2 163.76 259.97 164.21" style="fill:#198257"></polygon><g style="opacity:0.85"><polygon points="259.97 164.21 229.83 181.61 229.06 181.16 259.2 163.76 259.97 164.21" style="fill:#fff"></polygon></g><polygon points="229.83 224.43 229.83 181.61 229.06 181.16 229.06 223.99 229.83 224.43" style="fill:#198257"></polygon><g style="opacity:0.6000000000000001"><polyline points="229.06 181.16 229.06 223.99 229.83 224.43 229.83 181.61" style="fill:#fff"></polyline></g></g><g id="freepik--railing--inject-44"><path d="M270.51,194.51a.58.58,0,0,0-.28-.49l-.28-.15h0l-8.74-5h0a.22.22,0,0,0-.19,0,.89.89,0,0,0-.34.72.38.38,0,0,0,.12.32h0l.27.15h0l7.75,4.39" style="fill:#455a64"></path><path d="M269.69,196.07,260.91,191a.17.17,0,0,0-.12,0,.37.37,0,0,0-.16.29.1.1,0,0,0,.05.1l9,5.2Z" style="fill:#455a64"></path><g style="opacity:0.2"><polygon points="269.69 197.96 260.63 192.71 260.63 204.04 269.69 209.29 269.69 197.96"></polygon></g></g><g id="freepik--railing--inject-44"><g style="opacity:0.2"><polygon points="236.46 217.13 269.69 197.96 269.69 209.29 236.46 228.46 236.46 217.13"></polygon></g><g style="opacity:0.2"><polygon points="236.81 217.13 227.35 211.65 227.35 222.98 236.81 228.46 236.81 217.13"></polygon></g><path d="M236.65,215.15l-9-5.2s-.07,0-.12,0a.36.36,0,0,0-.16.29.11.11,0,0,0,.05.1l9,5.2Z" style="fill:#455a64"></path><path d="M252.82,205.79l16.55-9.54a.11.11,0,0,1,.12,0,.36.36,0,0,1,.16.28.12.12,0,0,1,0,.11l-16.55,9.54Z" style="fill:#455a64"></path><path d="M253.07,204.2v15.57a.1.1,0,0,1-.07.09.36.36,0,0,1-.32,0,.1.1,0,0,1-.07-.09V204.2Z" style="fill:#37474f"></path><path d="M236.62,215.15l16-9.26a.11.11,0,0,1,.12,0,.36.36,0,0,1,.16.28.13.13,0,0,1-.05.11l-16,9.26Z" style="fill:#455a64"></path><path d="M269.8,194.56v15.57s0,.06-.07.09a.36.36,0,0,1-.32,0c-.05,0-.07-.06-.07-.09V194.56Z" style="fill:#37474f"></path><path d="M236.86,213.56v15.57a.11.11,0,0,1-.06.09.33.33,0,0,1-.33,0,.1.1,0,0,1-.07-.09V213.56Z" style="fill:#37474f"></path><path d="M268.82,194.52l-32.19,18.57-8.74-5h0a.19.19,0,0,0-.19,0,.89.89,0,0,0-.34.72.42.42,0,0,0,.12.33h0l8.88,5a.57.57,0,0,0,.28.08.6.6,0,0,0,.28-.08L270.23,195a.58.58,0,0,0,.28-.49" style="fill:#455a64"></path></g></g><g id="freepik--balcony--inject-44"><g id="freepik--shadow--inject-44" style="opacity:0.15"><polygon points="203.62 303.65 169.33 323.46 169.33 315.69 203.62 295.87 203.62 303.65"></polygon></g><g id="freepik--floor--inject-44"><polygon points="169.33 315.69 203.62 295.87 212.74 301.14 178.45 320.95 169.33 315.69" style="fill:#fafafa"></polygon><polygon points="169.33 315.69 169.33 317 178.45 322.27 178.45 320.95 169.33 315.69" style="fill:#e0e0e0"></polygon><polygon points="178.45 320.95 212.74 301.14 212.74 302.45 178.45 322.27 178.45 320.95" style="fill:#f0f0f0"></polygon></g><g id="freepik--door--inject-44"><polygon points="197.9 260.82 197.9 299.18 174.74 312.56 174.73 274.2 197.9 260.82" style="fill:#198257"></polygon><polygon points="196.07 297.95 198.69 299.63 174.73 313.46 174.74 310.27 196.07 297.95" style="fill:#198257"></polygon><g style="opacity:0.8"><polygon points="196.07 297.95 198.69 299.63 174.73 313.46 174.74 310.27 196.07 297.95" style="fill:#fff"></polygon></g><polygon points="196.07 297.95 174.74 310.27 174.73 274.2 196.07 261.88 196.07 297.95" style="fill:#198257"></polygon><g style="opacity:0.9500000000000001"><polygon points="196.07 297.95 174.74 310.27 174.73 274.2 196.07 261.88 196.07 297.95" style="fill:#fff"></polygon></g><g style="opacity:0.1"><polygon points="196.07 261.88 196.07 265.45 174.73 277.77 174.73 274.2 196.07 261.88"></polygon></g><polygon points="187.13 267.04 186.32 267.51 186.32 305.86 187.13 305.4 187.13 267.04" style="fill:#198257"></polygon><g style="opacity:0.2"><polygon points="187.13 267.04 186.32 267.51 186.32 305.86 187.13 305.4 187.13 267.04"></polygon></g><polygon points="186.32 267.51 186.32 305.86 185.51 305.4 185.51 267.97 186.32 267.51" style="fill:#198257"></polygon><g style="opacity:0.4"><polygon points="186.32 267.51 186.32 305.86 185.51 305.4 185.51 267.97 186.32 267.51"></polygon></g><polygon points="197.9 299.18 198.69 299.63 198.69 260.37 197.9 260.82 197.9 299.18" style="fill:#198257"></polygon><g style="opacity:0.4"><polygon points="197.9 299.18 198.69 299.63 198.69 260.37 197.9 260.82 197.9 299.18" style="fill:#fff"></polygon></g><g style="opacity:0.1"><polygon points="197.9 299.18 198.69 299.63 198.69 260.37 197.9 260.82 197.9 299.18"></polygon></g><polygon points="198.69 299.63 201.78 297.84 201.78 255.02 171.64 272.42 171.64 315.24 174.73 313.46 174.73 274.2 198.68 260.37 198.69 299.63" style="fill:#198257"></polygon><g style="opacity:0.7000000000000001"><polygon points="198.69 299.63 201.78 297.84 201.78 255.02 171.64 272.42 171.64 315.24 174.73 313.46 174.73 274.2 198.68 260.37 198.69 299.63" style="fill:#fff"></polygon></g><polygon points="201.78 255.02 171.64 272.42 170.87 271.97 201.01 254.57 201.78 255.02" style="fill:#198257"></polygon><g style="opacity:0.85"><polygon points="201.78 255.02 171.64 272.42 170.87 271.97 201.01 254.57 201.78 255.02" style="fill:#fff"></polygon></g><polygon points="171.64 315.24 171.64 272.42 170.87 271.97 170.87 314.8 171.64 315.24" style="fill:#198257"></polygon><g style="opacity:0.6000000000000001"><polyline points="170.87 271.97 170.87 314.8 171.64 315.24 171.64 272.42" style="fill:#fff"></polyline></g></g><g id="freepik--railing--inject-44"><path d="M212.31,285.32a.58.58,0,0,0-.28-.49l-.28-.15h0L203,279.72h0a.19.19,0,0,0-.19,0,.89.89,0,0,0-.34.71.39.39,0,0,0,.12.33h0l.27.15h0l7.75,4.39" style="fill:#455a64"></path><path d="M211.49,286.88l-8.78-5.06a.17.17,0,0,0-.12,0,.37.37,0,0,0-.16.29.1.1,0,0,0,0,.1l9,5.2Z" style="fill:#455a64"></path><g style="opacity:0.2"><polygon points="211.49 288.77 202.43 283.52 202.43 294.85 211.49 300.1 211.49 288.77"></polygon></g></g><g id="freepik--railing--inject-44"><g style="opacity:0.2"><polygon points="178.26 307.94 211.49 288.77 211.49 300.1 178.26 319.27 178.26 307.94"></polygon></g><g style="opacity:0.2"><polygon points="178.61 307.94 169.15 302.46 169.15 313.79 178.61 319.27 178.61 307.94"></polygon></g><path d="M178.45,306l-9-5.2a.11.11,0,0,0-.11,0,.34.34,0,0,0-.17.28.12.12,0,0,0,0,.11l9,5.2Z" style="fill:#455a64"></path><path d="M194.62,296.6l16.55-9.54a.11.11,0,0,1,.12,0,.36.36,0,0,1,.16.28.12.12,0,0,1,0,.11L194.85,297Z" style="fill:#455a64"></path><path d="M194.87,295v15.57a.1.1,0,0,1-.07.09.36.36,0,0,1-.32,0,.1.1,0,0,1-.07-.09V295Z" style="fill:#37474f"></path><path d="M178.42,306l16-9.26a.11.11,0,0,1,.12,0,.36.36,0,0,1,.16.28.13.13,0,0,1-.05.11l-16,9.26Z" style="fill:#455a64"></path><path d="M211.6,285.37v15.57s0,.06-.07.09a.36.36,0,0,1-.32,0c-.05,0-.07-.06-.07-.09V285.37Z" style="fill:#37474f"></path><path d="M178.66,304.37v15.57a.11.11,0,0,1-.06.09.32.32,0,0,1-.33,0,.1.1,0,0,1-.07-.09V304.37Z" style="fill:#37474f"></path><path d="M210.62,285.33,178.43,303.9,169.69,299h0a.19.19,0,0,0-.19,0,.89.89,0,0,0-.34.72.42.42,0,0,0,.12.33h0l8.88,5a.57.57,0,0,0,.28.08.6.6,0,0,0,.28-.08L212,285.81a.55.55,0,0,0,.28-.49" style="fill:#455a64"></path></g></g><g id="freepik--balcony--inject-44"><g id="freepik--shadow--inject-44" style="opacity:0.15"><polygon points="203.62 246.31 169.33 266.13 169.33 258.35 203.62 238.53 203.62 246.31"></polygon></g><g id="freepik--floor--inject-44"><polygon points="169.33 258.35 203.62 238.53 212.74 243.8 178.45 263.61 169.33 258.35" style="fill:#fafafa"></polygon><polygon points="169.33 258.35 169.33 259.66 178.45 264.93 178.45 263.61 169.33 258.35" style="fill:#e0e0e0"></polygon><polygon points="178.45 263.61 212.74 243.8 212.74 245.11 178.45 264.93 178.45 263.61" style="fill:#f0f0f0"></polygon></g><g id="freepik--door--inject-44"><polygon points="197.9 203.48 197.9 241.84 174.74 255.21 174.73 216.86 197.9 203.48" style="fill:#198257"></polygon><polygon points="196.07 240.61 198.68 242.28 174.73 256.11 174.74 252.93 196.07 240.61" style="fill:#198257"></polygon><g style="opacity:0.8"><polygon points="196.07 240.61 198.68 242.28 174.73 256.11 174.74 252.93 196.07 240.61" style="fill:#fff"></polygon></g><polygon points="196.07 240.61 174.74 252.93 174.73 216.86 196.07 204.54 196.07 240.61" style="fill:#198257"></polygon><g style="opacity:0.9500000000000001"><polygon points="196.07 240.61 174.73 252.93 174.73 216.86 196.07 204.54 196.07 240.61" style="fill:#fff"></polygon></g><g style="opacity:0.1"><polygon points="196.07 204.54 196.07 208.11 174.73 220.43 174.73 216.86 196.07 204.54"></polygon></g><polygon points="187.12 209.7 186.32 210.16 186.32 248.51 187.12 248.06 187.12 209.7" style="fill:#198257"></polygon><g style="opacity:0.2"><polygon points="187.12 209.7 186.32 210.16 186.32 248.51 187.12 248.06 187.12 209.7"></polygon></g><polygon points="186.32 210.16 186.32 248.51 185.51 248.05 185.51 210.63 186.32 210.16" style="fill:#198257"></polygon><g style="opacity:0.4"><polygon points="186.32 210.16 186.32 248.51 185.51 248.05 185.51 210.63 186.32 210.16"></polygon></g><polygon points="197.9 241.84 198.68 242.28 198.68 203.03 197.9 203.48 197.9 241.84" style="fill:#198257"></polygon><g style="opacity:0.4"><polygon points="197.9 241.84 198.68 242.28 198.68 203.03 197.9 203.48 197.9 241.84" style="fill:#fff"></polygon></g><g style="opacity:0.1"><polygon points="197.9 241.84 198.68 242.28 198.68 203.03 197.9 203.48 197.9 241.84"></polygon></g><polygon points="198.68 242.28 201.77 240.5 201.77 197.68 171.64 215.07 171.64 257.9 174.73 256.11 174.73 216.86 198.68 203.03 198.68 242.28" style="fill:#198257"></polygon><g style="opacity:0.7000000000000001"><polygon points="198.68 242.28 201.77 240.5 201.77 197.68 171.64 215.07 171.64 257.9 174.73 256.11 174.73 216.86 198.68 203.03 198.68 242.28" style="fill:#fff"></polygon></g><polygon points="201.77 197.68 171.64 215.07 170.87 214.63 201.01 197.23 201.77 197.68" style="fill:#198257"></polygon><g style="opacity:0.85"><polygon points="201.77 197.68 171.64 215.07 170.87 214.63 201.01 197.23 201.77 197.68" style="fill:#fff"></polygon></g><polygon points="171.64 257.9 171.64 215.07 170.87 214.63 170.87 257.45 171.64 257.9" style="fill:#198257"></polygon><g style="opacity:0.6000000000000001"><polyline points="170.87 214.63 170.87 257.45 171.64 257.9 171.64 215.07" style="fill:#fff"></polyline></g></g><g id="freepik--railing--inject-44"><path d="M212.32,228a.56.56,0,0,0-.29-.49l-.27-.15h0l-8.75-5h0a.19.19,0,0,0-.2,0,.88.88,0,0,0-.33.71.38.38,0,0,0,.12.33h0l.27.15h0l7.75,4.38" style="fill:#455a64"></path><path d="M211.49,229.53l-8.78-5.05a.11.11,0,0,0-.11,0,.36.36,0,0,0-.16.28c0,.06,0,.09,0,.11l9,5.2Z" style="fill:#455a64"></path><g style="opacity:0.2"><polygon points="211.49 231.42 202.44 226.18 202.44 237.51 211.49 242.76 211.49 231.42"></polygon></g></g><g id="freepik--railing--inject-44"><g style="opacity:0.2"><polygon points="178.27 250.59 211.49 231.42 211.49 242.76 178.27 261.93 178.27 250.59"></polygon></g><g style="opacity:0.2"><polygon points="178.61 250.59 169.16 245.12 169.16 256.45 178.61 261.93 178.61 250.59"></polygon></g><path d="M178.46,248.62l-9-5.2a.11.11,0,0,0-.12,0,.36.36,0,0,0-.16.28.12.12,0,0,0,0,.11l9,5.2Z" style="fill:#455a64"></path><path d="M194.63,239.26l16.55-9.54a.09.09,0,0,1,.11,0,.37.37,0,0,1,.17.28.13.13,0,0,1-.05.11l-16.55,9.54Z" style="fill:#455a64"></path><path d="M194.88,237.67v15.56s0,.07-.07.1a.38.38,0,0,1-.33,0s-.07-.06-.07-.1V237.67Z" style="fill:#37474f"></path><path d="M178.42,248.62l16.05-9.27a.14.14,0,0,1,.11,0,.39.39,0,0,1,.17.29.1.1,0,0,1-.05.1l-16,9.27Z" style="fill:#455a64"></path><path d="M211.61,228v15.57s0,.07-.07.1a.38.38,0,0,1-.33,0s-.07-.06-.07-.1V228Z" style="fill:#37474f"></path><path d="M178.67,247V262.6a.1.1,0,0,1-.07.09.38.38,0,0,1-.33,0,.11.11,0,0,1-.06-.09V247Z" style="fill:#37474f"></path><path d="M210.63,228l-32.19,18.57-8.75-5h0a.24.24,0,0,0-.2,0,.92.92,0,0,0-.33.72.36.36,0,0,0,.12.32h0l8.88,5a.52.52,0,0,0,.27.07.53.53,0,0,0,.28-.07L212,228.46a.55.55,0,0,0,.28-.48" style="fill:#455a64"></path></g></g><g id="freepik--balcony--inject-44"><g id="freepik--shadow--inject-44" style="opacity:0.15"><polygon points="76.22 290.58 130.3 321.85 130.3 314.07 76.22 282.8 76.22 290.58"></polygon></g><g id="freepik--floor--inject-44"><polygon points="130.3 314.05 75.76 282.51 66.64 287.78 121.18 319.31 130.3 314.05" style="fill:#fafafa"></polygon><polygon points="130.3 314.05 130.3 315.37 121.18 320.63 121.18 319.31 130.3 314.05" style="fill:#e0e0e0"></polygon><polygon points="121.18 319.31 66.64 287.78 66.64 289.09 121.18 320.63 121.18 319.31" style="fill:#f0f0f0"></polygon></g><g id="freepik--door--inject-44"><polygon points="91.82 253.45 91.82 291.81 114.99 305.18 114.99 266.83 91.82 253.45" style="fill:#198257"></polygon><polygon points="93.65 290.58 91.04 292.25 114.99 306.08 114.99 302.9 93.65 290.58" style="fill:#198257"></polygon><g style="opacity:0.8"><polygon points="93.65 290.58 91.04 292.25 114.99 306.08 114.99 302.9 93.65 290.58" style="fill:#fff"></polygon></g><polygon points="93.65 290.58 114.99 302.9 114.99 266.83 93.65 254.51 93.65 290.58" style="fill:#198257"></polygon><g style="opacity:0.9500000000000001"><polygon points="93.65 290.58 114.99 302.9 114.99 266.83 93.65 254.51 93.65 290.58" style="fill:#fff"></polygon></g><g style="opacity:0.1"><polygon points="93.65 254.51 93.65 258.08 114.99 270.4 114.99 266.83 93.65 254.51"></polygon></g><polygon points="102.6 259.67 103.4 260.14 103.4 298.49 102.6 298.03 102.6 259.67" style="fill:#198257"></polygon><g style="opacity:0.2"><polygon points="102.6 259.67 103.4 260.14 103.4 298.49 102.6 298.03 102.6 259.67"></polygon></g><polygon points="103.4 260.14 103.4 298.49 104.21 298.02 104.21 260.6 103.4 260.14" style="fill:#198257"></polygon><g style="opacity:0.4"><polygon points="103.4 260.14 103.4 298.49 104.21 298.02 104.21 260.6 103.4 260.14"></polygon></g><polygon points="91.82 291.81 91.04 292.25 91.04 253 91.82 253.45 91.82 291.81" style="fill:#198257"></polygon><g style="opacity:0.4"><polygon points="91.82 291.81 91.04 292.25 91.04 253 91.82 253.45 91.82 291.81" style="fill:#fff"></polygon></g><g style="opacity:0.1"><polygon points="91.82 291.81 91.04 292.25 91.04 253 91.82 253.45 91.82 291.81"></polygon></g><polygon points="91.04 292.25 87.95 290.47 87.95 247.65 118.08 265.05 118.08 307.87 114.99 306.08 114.99 266.83 91.04 253 91.04 292.25" style="fill:#198257"></polygon><g style="opacity:0.7000000000000001"><polygon points="91.04 292.25 87.95 290.47 87.95 247.65 118.08 265.05 118.08 307.87 114.99 306.08 114.99 266.83 91.04 253 91.04 292.25" style="fill:#fff"></polygon></g><polygon points="87.95 247.65 118.08 265.05 118.85 264.6 88.71 247.2 87.95 247.65" style="fill:#198257"></polygon><g style="opacity:0.85"><polygon points="87.95 247.65 118.08 265.05 118.85 264.6 88.71 247.2 87.95 247.65" style="fill:#fff"></polygon></g><polygon points="118.08 307.87 118.08 265.05 118.85 264.6 118.85 307.43 118.08 307.87" style="fill:#198257"></polygon><g style="opacity:0.6000000000000001"><polyline points="118.85 264.6 118.85 307.43 118.08 307.87 118.08 265.05" style="fill:#fff"></polyline></g></g><g id="freepik--railing--inject-44"><path d="M67,271.93a.56.56,0,0,1,.28-.48l.27-.16h0l8.75-5h0a.21.21,0,0,1,.2,0,.89.89,0,0,1,.34.72.36.36,0,0,1-.13.32h0l-.26.15h0l-7.75,4.39" style="fill:#455a64"></path><path d="M67.84,273.49l8.78-5.05a.09.09,0,0,1,.11,0,.37.37,0,0,1,.17.28.13.13,0,0,1-.05.11l-9,5.19Z" style="fill:#455a64"></path><g style="opacity:0.2"><polygon points="67.84 275.38 76.9 270.13 76.9 281.46 67.84 286.71 67.84 275.38"></polygon></g></g><g id="freepik--railing--inject-44"><g style="opacity:0.2"><polygon points="121.37 306.3 67.84 275.38 67.84 286.71 121.37 317.63 121.37 306.3"></polygon></g><g style="opacity:0.2"><polygon points="121.03 306.3 130.48 300.82 130.48 312.15 121.03 317.63 121.03 306.3"></polygon></g><path d="M121.18,304.32l9-5.2s.07,0,.12,0a.36.36,0,0,1,.16.29.11.11,0,0,1,0,.1l-9,5.2Z" style="fill:#455a64"></path><path d="M95.1,289.23,68.15,273.67s-.07,0-.11,0a.36.36,0,0,0-.16.29.11.11,0,0,0,0,.1l27,15.56Z" style="fill:#455a64"></path><path d="M94.85,287.63V303.2s0,.07.07.1a.36.36,0,0,0,.32,0c.05,0,.07-.06.07-.1V287.63Z" style="fill:#37474f"></path><path d="M121.22,304.32l-26-15a.11.11,0,0,0-.12,0,.36.36,0,0,0-.16.28.12.12,0,0,0,0,.11l26,15Z" style="fill:#455a64"></path><path d="M67.73,272v15.57a.11.11,0,0,0,.06.09.38.38,0,0,0,.33,0,.1.1,0,0,0,.07-.09V272Z" style="fill:#37474f"></path><path d="M121,302.73V318.3s0,.07.07.1a.36.36,0,0,0,.32,0s.07-.06.07-.1V302.73Z" style="fill:#37474f"></path><path d="M68.71,271.94l52.49,30.32,8.75-4.95h0a.19.19,0,0,1,.19,0,.89.89,0,0,1,.34.72.42.42,0,0,1-.12.33h0l-8.88,5a.53.53,0,0,1-.27.08.6.6,0,0,1-.29-.08l-53.61-31a.55.55,0,0,1-.28-.49" style="fill:#455a64"></path></g></g><g id="freepik--balcony--inject-44"><g id="freepik--shadow--inject-44" style="opacity:0.15"><polygon points="75.62 232.89 130.3 264.5 130.3 256.71 75.62 225.09 75.62 232.89"></polygon></g><g id="freepik--floor--inject-44"><polygon points="130.3 256.71 75.76 225.17 66.64 230.44 121.18 261.98 130.3 256.71" style="fill:#fafafa"></polygon><polygon points="130.3 256.71 130.3 258.03 121.18 263.29 121.18 261.98 130.3 256.71" style="fill:#e0e0e0"></polygon><polygon points="121.18 261.98 66.64 230.44 66.64 231.75 121.18 263.29 121.18 261.98" style="fill:#f0f0f0"></polygon></g><g id="freepik--door--inject-44"><polygon points="91.82 196.11 91.82 234.47 114.99 247.85 114.99 209.5 91.82 196.11" style="fill:#198257"></polygon><polygon points="93.65 233.24 91.04 234.92 114.99 248.75 114.99 245.56 93.65 233.24" style="fill:#198257"></polygon><g style="opacity:0.8"><polygon points="93.65 233.24 91.04 234.92 114.99 248.75 114.99 245.56 93.65 233.24" style="fill:#fff"></polygon></g><polygon points="93.65 233.24 114.99 245.56 114.99 209.5 93.65 197.18 93.65 233.24" style="fill:#198257"></polygon><g style="opacity:0.9500000000000001"><polygon points="93.65 233.24 114.99 245.56 114.99 209.5 93.65 197.18 93.65 233.24" style="fill:#fff"></polygon></g><g style="opacity:0.1"><polygon points="93.65 197.18 93.65 200.74 114.99 213.06 114.99 209.5 93.65 197.18"></polygon></g><polygon points="102.6 202.34 103.4 202.8 103.4 241.15 102.6 240.69 102.6 202.34" style="fill:#198257"></polygon><g style="opacity:0.2"><polygon points="102.6 202.34 103.4 202.8 103.4 241.15 102.6 240.69 102.6 202.34"></polygon></g><polygon points="103.4 202.8 103.4 241.15 104.21 240.69 104.21 203.26 103.4 202.8" style="fill:#198257"></polygon><g style="opacity:0.4"><polygon points="103.4 202.8 103.4 241.15 104.21 240.69 104.21 203.26 103.4 202.8"></polygon></g><polygon points="91.82 234.47 91.04 234.92 91.04 195.66 91.82 196.11 91.82 234.47" style="fill:#198257"></polygon><g style="opacity:0.4"><polygon points="91.82 234.47 91.04 234.92 91.04 195.66 91.82 196.11 91.82 234.47" style="fill:#fff"></polygon></g><g style="opacity:0.1"><polygon points="91.82 234.47 91.04 234.92 91.04 195.66 91.82 196.11 91.82 234.47"></polygon></g><polygon points="91.04 234.92 87.95 233.13 87.95 190.31 118.08 207.71 118.08 250.53 114.99 248.75 114.99 209.5 91.04 195.66 91.04 234.92" style="fill:#198257"></polygon><g style="opacity:0.7000000000000001"><polygon points="91.04 234.92 87.95 233.13 87.95 190.31 118.08 207.71 118.08 250.53 114.99 248.75 114.99 209.5 91.04 195.66 91.04 234.92" style="fill:#fff"></polygon></g><polygon points="87.95 190.31 118.08 207.71 118.85 207.26 88.71 189.87 87.95 190.31" style="fill:#198257"></polygon><g style="opacity:0.85"><polygon points="87.95 190.31 118.08 207.71 118.85 207.26 88.71 189.87 87.95 190.31" style="fill:#fff"></polygon></g><polygon points="118.08 250.53 118.08 207.71 118.85 207.26 118.85 250.09 118.08 250.53" style="fill:#198257"></polygon><g style="opacity:0.6000000000000001"><polyline points="118.85 207.26 118.85 250.09 118.08 250.53 118.08 207.71" style="fill:#fff"></polyline></g></g><g id="freepik--railing--inject-44"><path d="M67,214.6a.58.58,0,0,1,.28-.49l.27-.15h0L76.32,209h0a.24.24,0,0,1,.2,0,.89.89,0,0,1,.34.71.37.37,0,0,1-.13.33h0l-.26.15h0l-7.75,4.39" style="fill:#455a64"></path><path d="M67.84,216.16l8.78-5.06a.14.14,0,0,1,.11,0,.39.39,0,0,1,.17.29.1.1,0,0,1-.05.1l-9,5.2Z" style="fill:#455a64"></path><g style="opacity:0.2"><polygon points="67.84 218.05 76.9 212.8 76.9 224.13 67.84 229.38 67.84 218.05"></polygon></g></g><g id="freepik--railing--inject-44"><g style="opacity:0.2"><polygon points="121.37 248.97 67.84 218.05 67.84 229.38 121.37 260.3 121.37 248.97"></polygon></g><g style="opacity:0.2"><polygon points="121.03 248.97 130.48 243.49 130.48 254.82 121.03 260.3 121.03 248.97"></polygon></g><path d="M121.18,247l9-5.2a.11.11,0,0,1,.12,0,.36.36,0,0,1,.16.28.12.12,0,0,1,0,.11l-9,5.2Z" style="fill:#455a64"></path><path d="M95.1,231.9,68.15,216.34a.09.09,0,0,0-.11,0,.36.36,0,0,0-.16.28c0,.06,0,.09,0,.11l27,15.56Z" style="fill:#455a64"></path><path d="M94.85,230.3v15.57a.1.1,0,0,0,.07.09.31.31,0,0,0,.32,0,.1.1,0,0,0,.07-.09V230.3Z" style="fill:#37474f"></path><path d="M121.22,247l-26-15a.11.11,0,0,0-.12,0,.36.36,0,0,0-.16.28.13.13,0,0,0,0,.11l26,15Z" style="fill:#455a64"></path><path d="M67.73,214.65v15.57a.12.12,0,0,0,.06.09.38.38,0,0,0,.33,0s.07-.06.07-.09V214.65Z" style="fill:#37474f"></path><path d="M121,245.4V261a.1.1,0,0,0,.07.09.31.31,0,0,0,.32,0,.1.1,0,0,0,.07-.09V245.4Z" style="fill:#37474f"></path><path d="M68.71,214.61l52.49,30.32,8.75-5h0a.19.19,0,0,1,.19,0,.89.89,0,0,1,.34.72.42.42,0,0,1-.12.33h0l-8.88,5a.52.52,0,0,1-.27.07.59.59,0,0,1-.29-.07l-53.61-31a.55.55,0,0,1-.28-.49" style="fill:#455a64"></path></g></g><g id="freepik--Roof--inject-44"><g id="freepik--roof--inject-44"><g id="freepik--roof--inject-44"><polygon points="281.56 136.66 183.96 80.2 53.59 155.54 151.2 211.9 281.56 136.66" style="fill:#198257"></polygon></g><g style="opacity:0.8"><g id="freepik--roof--inject-44"><polygon points="281.56 136.66 183.96 80.2 53.59 155.54 151.2 211.9 281.56 136.66" style="fill:#fff"></polygon></g></g></g><polygon points="183.91 85.66 183.91 89.43 268.97 138.54 272.24 136.65 183.91 85.66" style="fill:#198257"></polygon><g style="opacity:0.15"><polygon points="183.91 85.66 183.91 89.43 268.97 138.54 272.24 136.65 183.91 85.66"></polygon></g><polygon points="183.91 85.66 62.86 155.54 66.13 157.43 183.91 89.43 183.91 85.66" style="fill:#198257"></polygon><polygon points="268.97 138.54 183.91 89.43 66.13 157.43 151.19 206.54 268.97 138.54" style="fill:#198257"></polygon><g style="opacity:0.30000000000000004"><polygon points="268.97 138.54 183.91 89.43 66.13 157.43 151.19 206.54 268.97 138.54"></polygon></g><g style="opacity:0.1"><polygon points="90.52 144.19 67.98 157.2 83.83 166.35 106.37 153.35 90.52 144.19"></polygon></g><polygon points="90.67 141.26 82.49 145.98 93.94 152.59 102.12 147.87 90.67 141.26" style="fill:#fafafa"></polygon><polygon points="82.49 145.98 82.49 150.7 93.94 157.31 93.94 152.59 82.49 145.98" style="fill:#e0e0e0"></polygon><polygon points="102.12 147.87 102.12 152.59 93.94 157.31 93.94 152.59 102.12 147.87" style="fill:#f0f0f0"></polygon><path d="M88,144.43c-1.48.86-1.48,2.25,0,3.1a5.93,5.93,0,0,0,5.38,0c1.48-.85,1.48-2.24,0-3.1A5.93,5.93,0,0,0,88,144.43Z" style="fill:#e0e0e0"></path><path d="M89.41,145.31c-.69.37-.69,1,0,1.34a3,3,0,0,0,2.52,0c.69-.37.69-1,0-1.34A3,3,0,0,0,89.41,145.31Z" style="fill:#fafafa"></path><path d="M98.11,157.2a.4.4,0,0,1-.4-.4v-2.6l-1.44-.83a.41.41,0,0,1-.15-.55.4.4,0,0,1,.55-.15l1.64.94a.43.43,0,0,1,.2.35v2.84A.4.4,0,0,1,98.11,157.2Z" style="fill:#198257"></path><path d="M100.48,155.83a.4.4,0,0,1-.4-.4v-2.6L98.65,152a.4.4,0,1,1,.4-.7l1.64.94a.43.43,0,0,1,.2.35v2.84A.4.4,0,0,1,100.48,155.83Z" style="fill:#198257"></path><polygon points="79.22 147.87 71.04 152.59 82.49 159.2 90.67 154.48 79.22 147.87" style="fill:#fafafa"></polygon><polygon points="71.04 152.59 71.04 157.31 82.49 163.93 82.49 159.2 71.04 152.59" style="fill:#e0e0e0"></polygon><polygon points="90.67 154.48 90.67 159.2 82.49 163.93 82.49 159.2 90.67 154.48" style="fill:#f0f0f0"></polygon><path d="M76.53,151c-1.48.86-1.48,2.25,0,3.1a5.93,5.93,0,0,0,5.38,0c1.48-.85,1.48-2.24,0-3.1A5.93,5.93,0,0,0,76.53,151Z" style="fill:#e0e0e0"></path><path d="M78,151.92c-.69.37-.69,1,0,1.34a3,3,0,0,0,2.52,0c.69-.37.69-1,0-1.34A3.08,3.08,0,0,0,78,151.92Z" style="fill:#fafafa"></path><path d="M86.66,163.81a.4.4,0,0,1-.41-.4v-2.6L84.82,160a.41.41,0,0,1-.15-.55.4.4,0,0,1,.55-.15l1.64.94a.43.43,0,0,1,.2.35v2.84A.4.4,0,0,1,86.66,163.81Z" style="fill:#198257"></path><path d="M89,162.44a.4.4,0,0,1-.4-.4v-2.6l-1.43-.83a.4.4,0,1,1,.4-.7l1.63.94a.42.42,0,0,1,.21.35V162A.4.4,0,0,1,89,162.44Z" style="fill:#198257"></path><g style="opacity:0.1"><polygon points="183.91 85.66 179.63 91.9 264.69 141.01 272.24 136.65 183.91 85.66"></polygon></g><g id="freepik--cornice--inject-44"><polyline points="151.2 211.9 53.59 155.54 53.59 161.31 151.19 217.67 151.2 211.9" style="fill:#198257"></polyline><g style="opacity:0.4"><polyline points="151.2 211.9 53.59 155.54 53.59 161.31 151.19 217.67 151.2 211.9" style="fill:#fff"></polyline></g><polygon points="281.56 136.66 281.56 142.43 151.19 217.67 151.2 211.9 281.56 136.66" style="fill:#198257"></polygon><g style="opacity:0.6000000000000001"><polygon points="281.56 136.66 281.56 142.43 151.19 217.67 151.2 211.9 281.56 136.66" style="fill:#fff"></polygon></g></g></g></g></g><g id="freepik--Boxes--inject-44"><g id="freepik--boxes--inject-44"><g id="freepik--Box--inject-44"><g id="freepik--box--inject-44"><g id="freepik--back-box--inject-44"><polygon points="47.51 413.55 89.86 389.1 143.12 419.84 100.76 444.3 47.51 413.55"></polygon><polygon points="89.86 389.1 89.86 347.28 46.65 372.23 82.8 393.17 89.86 389.1" style="fill:#37474f"></polygon><polygon points="89.86 347.28 89.86 389.1 107.82 399.46 143.97 378.52 89.86 347.28" style="fill:#263238"></polygon></g><g id="freepik--front-box--inject-44"><polygon points="46.65 372.23 46.65 413.06 100.76 444.3 100.76 403.54 46.65 372.23" style="fill:#263238"></polygon><polygon points="100.76 403.54 100.76 444.3 143.97 419.35 143.97 378.52 100.76 403.54" style="fill:#37474f"></polygon><polygon points="100.76 403.54 101.61 442.74 133 425.69 100.76 444.3 100.76 403.54" style="fill:#455a64"></polygon></g><path d="M105.93,431.19a.89.89,0,0,1-.45-.12,1.35,1.35,0,0,1-.55-1.23v-3.61h0V426l.19,0,2.83-1.66v4a3.27,3.27,0,0,1-1.4,2.63A1.27,1.27,0,0,1,105.93,431.19Zm-.55-4.69v3.34a.94.94,0,0,0,.33.84.68.68,0,0,0,.62-.07,2.86,2.86,0,0,0,1.16-2.24v-.3h-1l-.2-1.42Zm1.46,1.12h.65v-2.5l-1.69,1,.84.15Z" style="fill:#e0e0e0"></path><path d="M106.44,434.07a.23.23,0,0,1-.23-.23v-3a.22.22,0,0,1,.23-.22.23.23,0,0,1,.23.22v3A.24.24,0,0,1,106.44,434.07Z" style="fill:#e0e0e0"></path><path d="M105.12,434.83a.23.23,0,0,1-.11-.43l2.63-1.52a.23.23,0,0,1,.31.08.22.22,0,0,1-.08.31l-2.64,1.53A.2.2,0,0,1,105.12,434.83Z" style="fill:#e0e0e0"></path><path d="M114.51,429.6a.5.5,0,0,1-.24-.06A.6.6,0,0,1,114,429v-.62a.23.23,0,0,1,.23-.23.23.23,0,0,1,.23.23V429c0,.1,0,.14,0,.15s.07,0,.15,0a1.34,1.34,0,0,0,.42-1v-4a.23.23,0,0,1,.23-.23.23.23,0,0,1,.23.23v4a1.74,1.74,0,0,1-.65,1.42A.7.7,0,0,1,114.51,429.6Z" style="fill:#e0e0e0"></path><path d="M112.12,426.08v-.4a6.44,6.44,0,0,1,2.91-5,1.92,1.92,0,0,1,3.13,1.81v.13Zm4.27-5.39a2.37,2.37,0,0,0-1.14.35,6,6,0,0,0-2.65,4.24l5.1-2.95a1.66,1.66,0,0,0-.7-1.48A1.16,1.16,0,0,0,116.39,420.69Z" style="fill:#e0e0e0"></path><path d="M122.67,425a.22.22,0,0,1-.23-.22V417a.23.23,0,1,1,.45,0v7.73A.22.22,0,0,1,122.67,425Z" style="fill:#e0e0e0"></path><path d="M122,418.76a.15.15,0,0,1-.09,0,.23.23,0,0,1-.11-.3l.8-1.86.91,1a.22.22,0,0,1,0,.32.23.23,0,0,1-.32,0l-.43-.5-.52,1.21A.22.22,0,0,1,122,418.76Z" style="fill:#e0e0e0"></path><path d="M124.77,423.76a.23.23,0,0,1-.23-.23V415.8a.22.22,0,0,1,.23-.22.23.23,0,0,1,.23.22v7.73A.24.24,0,0,1,124.77,423.76Z" style="fill:#e0e0e0"></path><path d="M124.1,417.56H124a.23.23,0,0,1-.11-.3l.8-1.87.9,1a.22.22,0,0,1,0,.32.23.23,0,0,1-.32,0l-.43-.5-.52,1.21A.22.22,0,0,1,124.1,417.56Z" style="fill:#e0e0e0"></path><path d="M55.91,401.21,67.7,408a1.18,1.18,0,0,1,.54.93v8.2c0,.67-.48,1-1.07.61L55.38,411a1.18,1.18,0,0,1-.54-.92v-8.21C54.84,401.15,55.32,400.87,55.91,401.21Z" style="fill:#fafafa"></path><polygon points="55.61 402.49 56.02 402.72 56.02 409.96 55.61 409.73 55.61 402.49" style="fill:#455a64"></polygon><polygon points="57.25 403.43 57.94 403.84 57.94 411.07 57.25 410.67 57.25 403.43" style="fill:#455a64"></polygon><polygon points="58.88 404.37 59.28 404.61 59.28 411.84 58.88 411.61 58.88 404.37" style="fill:#455a64"></polygon><polygon points="60.11 405.07 60.92 405.55 60.92 412.79 60.11 412.31 60.11 405.07" style="fill:#455a64"></polygon><polygon points="62.15 406.26 62.55 406.49 62.55 413.73 62.15 413.5 62.15 406.26" style="fill:#455a64"></polygon><polygon points="63.33 406.92 64.18 407.43 64.18 414.67 63.33 414.16 63.33 406.92" style="fill:#455a64"></polygon><polygon points="65.42 408.14 65.82 408.38 65.82 415.61 65.42 415.38 65.42 408.14" style="fill:#455a64"></polygon><polygon points="66.35 408.67 66.55 408.79 66.55 416.03 66.35 415.91 66.35 408.67" style="fill:#455a64"></polygon><polygon points="64.67 407.75 64.87 407.87 64.87 415.1 64.67 414.99 64.67 407.75" style="fill:#455a64"></polygon><polygon points="61.38 405.82 61.58 405.94 61.58 413.18 61.38 413.06 61.38 405.82" style="fill:#455a64"></polygon><polygon points="59.58 404.79 59.78 404.9 59.78 412.14 59.58 412.02 59.58 404.79" style="fill:#455a64"></polygon><polygon points="58.28 404.07 58.48 404.19 58.48 411.43 58.28 411.31 58.28 404.07" style="fill:#455a64"></polygon><polygon points="56.53 403.01 56.73 403.12 56.73 410.36 56.53 410.25 56.53 403.01" style="fill:#455a64"></polygon><polygon points="67.05 409.09 67.45 409.32 67.45 416.56 67.05 416.32 67.05 409.09" style="fill:#455a64"></polygon></g><polygon points="89.86 347.28 46.65 372.23 100.76 403.54 143.97 378.52 89.86 347.28" style="fill:#455a64"></polygon><polygon points="46.65 372.23 100.76 401.99 143.97 378.52 100.76 403.54 46.65 372.23" style="fill:#fff;opacity:0.1"></polygon><polygon points="64.58 361.87 118.73 393.14 125.38 389.29 71.24 358.03 64.58 361.87" style="fill:#198257"></polygon><polygon points="125.38 389.28 125.38 397.74 124.58 397.29 123.74 398.73 122.91 398.24 122.07 399.7 121.23 399.2 120.4 400.65 119.56 400.17 118.72 401.61 118.72 393.14 125.38 389.28" style="fill:#198257"></polygon><polygon points="125.38 389.28 125.38 397.74 124.58 397.29 123.74 398.73 122.91 398.24 122.07 399.7 121.23 399.2 120.4 400.65 119.56 400.17 118.72 401.61 118.72 393.14 125.38 389.28" style="opacity:0.25"></polygon></g><polygon points="102.62 356.33 64.93 378.09 102.62 399.92 140.31 378.09 102.62 356.33" style="opacity:0.1"></polygon><g id="freepik--box--inject-44"><g id="freepik--box--inject-44"><g id="freepik--back-box--inject-44"><polygon points="72.1 379.15 103.6 360.97 135.1 379.15 103.6 397.34 72.1 379.15"></polygon><polygon points="103.6 360.97 103.6 324.98 71.36 343.6 102.48 361.62 103.6 360.97" style="fill:#37474f"></polygon><polygon points="103.6 324.98 103.6 360.97 104.73 361.62 135.84 343.6 103.6 324.98" style="fill:#263238"></polygon></g><g id="freepik--front-box--inject-44"><polygon points="71.36 343.6 71.36 378.73 103.6 397.34 103.6 362.27 71.36 343.6" style="fill:#263238"></polygon><polygon points="103.6 362.27 103.6 397.34 135.84 378.73 135.84 343.6 103.6 362.27" style="fill:#37474f"></polygon><polygon points="103.6 362.27 104.34 396 131.34 381.32 103.6 397.34 103.6 362.27" style="fill:#455a64"></polygon></g><path d="M108.05,386.06a.8.8,0,0,1-.38-.1,1.16,1.16,0,0,1-.48-1.06v-3.1h0v-.23l.16,0,2.44-1.43v3.47a2.83,2.83,0,0,1-1.2,2.27A1.18,1.18,0,0,1,108.05,386.06Zm-.47-4v2.87a.8.8,0,0,0,.28.72.55.55,0,0,0,.53-.06,2.44,2.44,0,0,0,1-1.93v-.25h-.91l-.17-1.22Zm1.25,1h.57v-2.14l-1.46.85.72.13Z" style="fill:#e0e0e0"></path><path d="M108.49,388.54a.2.2,0,0,1-.2-.2v-2.61a.2.2,0,0,1,.2-.2.19.19,0,0,1,.19.2v2.61A.19.19,0,0,1,108.49,388.54Z" style="fill:#e0e0e0"></path><path d="M107.35,389.19a.2.2,0,0,1-.17-.1.19.19,0,0,1,.08-.26l2.27-1.31a.18.18,0,0,1,.26.07.18.18,0,0,1-.07.26l-2.27,1.31A.17.17,0,0,1,107.35,389.19Z" style="fill:#e0e0e0"></path><path d="M115.44,384.69a.42.42,0,0,1-.22-.05.54.54,0,0,1-.23-.47v-.54a.2.2,0,0,1,.2-.19.2.2,0,0,1,.19.19v.54c0,.08,0,.12,0,.13s.06,0,.13,0a1.16,1.16,0,0,0,.36-.89v-3.47a.19.19,0,0,1,.19-.19.19.19,0,0,1,.2.19v3.47a1.49,1.49,0,0,1-.55,1.22A.64.64,0,0,1,115.44,384.69Z" style="fill:#e0e0e0"></path><path d="M113.38,381.66v-.34a5.54,5.54,0,0,1,2.5-4.33,1.9,1.9,0,0,1,1.89-.17,1.87,1.87,0,0,1,.8,1.73v.11Zm3.67-4.63a2,2,0,0,0-1,.3,5.15,5.15,0,0,0-2.28,3.64l4.39-2.53a1.43,1.43,0,0,0-.6-1.28A1.07,1.07,0,0,0,117.05,377Z" style="fill:#e0e0e0"></path><path d="M122.45,380.69a.19.19,0,0,1-.19-.19v-6.65a.2.2,0,1,1,.39,0v6.65A.19.19,0,0,1,122.45,380.69Z" style="fill:#e0e0e0"></path><path d="M121.88,375.37l-.07,0a.2.2,0,0,1-.11-.26l.7-1.6.77.89a.19.19,0,0,1,0,.28.2.2,0,0,1-.28,0l-.37-.43-.45,1A.2.2,0,0,1,121.88,375.37Z" style="fill:#e0e0e0"></path><path d="M124.26,379.66a.18.18,0,0,1-.19-.19v-6.65a.19.19,0,0,1,.19-.2.2.2,0,0,1,.2.2v6.65A.19.19,0,0,1,124.26,379.66Z" style="fill:#e0e0e0"></path><path d="M123.69,374.34l-.08,0a.2.2,0,0,1-.1-.26l.7-1.6.77.89a.2.2,0,0,1,0,.28.19.19,0,0,1-.27,0l-.37-.43-.45,1A.21.21,0,0,1,123.69,374.34Z" style="fill:#e0e0e0"></path><path d="M79.33,368.54l10.15,5.86a1,1,0,0,1,.46.79v7.06c0,.58-.41.82-.91.53l-10.15-5.87a1,1,0,0,1-.46-.79v-7.06C78.42,368.48,78.83,368.24,79.33,368.54Z" style="fill:#fafafa"></path><polygon points="79.08 369.63 79.42 369.83 79.42 376.06 79.08 375.86 79.08 369.63" style="fill:#455a64"></polygon><polygon points="80.49 370.44 81.08 370.8 81.08 377.02 80.49 376.67 80.49 370.44" style="fill:#455a64"></polygon><polygon points="81.89 371.26 82.24 371.46 82.24 377.68 81.89 377.48 81.89 371.26" style="fill:#455a64"></polygon><polygon points="82.95 371.86 83.64 372.27 83.64 378.5 82.95 378.08 82.95 371.86" style="fill:#455a64"></polygon><polygon points="84.7 372.88 85.05 373.08 85.05 379.31 84.7 379.11 84.7 372.88" style="fill:#455a64"></polygon><polygon points="85.72 373.45 86.45 373.89 86.45 380.12 85.72 379.68 85.72 373.45" style="fill:#455a64"></polygon><polygon points="87.52 374.5 87.86 374.7 87.86 380.93 87.52 380.73 87.52 374.5" style="fill:#455a64"></polygon><polygon points="88.32 374.96 88.49 375.06 88.49 381.29 88.32 381.19 88.32 374.96" style="fill:#455a64"></polygon><polygon points="86.87 374.16 87.05 374.26 87.05 380.49 86.87 380.39 86.87 374.16" style="fill:#455a64"></polygon><polygon points="84.04 372.5 84.22 372.6 84.22 378.83 84.04 378.73 84.04 372.5" style="fill:#455a64"></polygon><polygon points="82.49 371.61 82.66 371.71 82.66 377.94 82.49 377.84 82.49 371.61" style="fill:#455a64"></polygon><polygon points="81.38 371 81.55 371.1 81.55 377.33 81.38 377.23 81.38 371" style="fill:#455a64"></polygon><polygon points="79.87 370.08 80.04 370.18 80.04 376.41 79.87 376.31 79.87 370.08" style="fill:#455a64"></polygon><polygon points="88.92 375.31 89.27 375.51 89.27 381.74 88.92 381.54 88.92 375.31" style="fill:#455a64"></polygon></g><polygon points="103.6 324.98 71.36 343.6 103.6 362.27 135.84 343.6 103.6 324.98" style="fill:#455a64"></polygon><polygon points="71.36 343.6 103.6 360.94 135.84 343.6 103.6 362.27 71.36 343.6" style="fill:#fff;opacity:0.1"></polygon><polygon points="85.69 335.32 117.96 353.95 123.69 350.64 91.42 332.01 85.69 335.32" style="fill:#198257"></polygon><polygon points="123.69 350.64 123.69 357.92 123 357.52 122.28 358.76 121.56 358.34 120.84 359.6 120.12 359.17 119.4 360.42 118.68 360.01 117.96 361.25 117.96 353.95 123.69 350.64" style="fill:#198257"></polygon><polygon points="123.69 350.64 123.69 357.92 123 357.52 122.28 358.76 121.56 358.34 120.84 359.6 120.12 359.17 119.4 360.42 118.68 360.01 117.96 361.25 117.96 353.95 123.69 350.64" style="opacity:0.25"></polygon></g></g></g><g id="freepik--Map--inject-44"><g id="freepik--map--inject-44"><path d="M185.3,414.49l20.3-5.85,21-17.75a1.89,1.89,0,0,1,2-.18l50.28,29a.82.82,0,0,1,.12,1.43l-21,17.75-20.3,5.86-22,18.55-22.49,7.42a3.14,3.14,0,0,1-2.27-.23l-2.3-1.33-48-27.69c-.59-.35-.55-.8.11-1l22.49-7.42Z" style="fill:#198257"></path><g style="opacity:0.5"><path d="M185.3,414.49l20.3-5.85,21-17.75a1.89,1.89,0,0,1,2-.18l50.28,29a.82.82,0,0,1,.12,1.43l-21,17.75-20.3,5.86-22,18.55-22.49,7.42a3.14,3.14,0,0,1-2.27-.23l-2.3-1.33-48-27.69c-.59-.35-.55-.8.11-1l22.49-7.42Z" style="fill:#fff"></path></g><g style="opacity:0.2"><polygon points="205.6 408.64 258.04 438.91 237.74 444.77 185.3 414.5 205.6 408.64" style="fill:#198257"></polygon></g><g style="opacity:0.2"><path d="M215.75,463.32l-22.49,7.42a3.14,3.14,0,0,1-2.27-.23l-50.28-29c-.59-.35-.55-.8.11-1l22.49-7.42Z" style="fill:#198257"></path></g><polygon points="208.98 410.59 228.23 394.35 273.89 420.72 254.65 436.96 208.98 410.59" style="fill:#e6e6e6"></polygon><polygon points="188.68 416.45 234.35 442.81 254.65 436.96 208.98 410.59 188.68 416.45" style="fill:#e0e0e0"></polygon><g style="opacity:0.1;mix-blend-mode:multiply"><polygon points="188.68 416.45 234.35 442.81 254.65 436.96 208.98 410.59 188.68 416.45"></polygon></g><polygon points="166.7 435 212.37 461.37 234.35 442.81 188.68 416.45 166.7 435" style="fill:#e6e6e6"></polygon><polygon points="147.32 441.39 192.99 467.76 212.37 461.37 166.7 435 147.32 441.39" style="fill:#e0e0e0"></polygon><g style="opacity:0.1;mix-blend-mode:multiply"><polygon points="147.32 441.39 192.99 467.76 212.37 461.37 166.7 435 147.32 441.39"></polygon></g><polygon points="262.76 430.12 256.35 426.21 266.49 416.45 273.89 420.72 262.76 430.12" style="fill:#fafafa"></polygon><polygon points="254.65 425.24 264.8 415.47 249.58 406.65 239.43 416.45 254.65 425.24" style="fill:#fafafa"></polygon><polygon points="247.89 405.7 237.74 415.47 232.66 412.54 234.36 397.89 247.89 405.7" style="fill:#fafafa"></polygon><polygon points="230.97 411.56 232.66 396.92 228.23 394.35 211.73 408.27 230.97 411.56" style="fill:#fafafa"></polygon><polygon points="248.73 433.54 253.81 428.65 260.15 432.32 254.65 436.96 248.73 433.54" style="fill:#fafafa"></polygon><polygon points="252.12 427.68 247.04 432.56 231.84 423.78 236.9 418.89 252.12 427.68" style="fill:#fafafa"></polygon><polygon points="230.13 422.8 235.2 417.91 230.56 415.23 220.82 413.52 220.82 417.42 230.13 422.8" style="fill:#fafafa"></polygon><polygon points="219.13 416.45 219.13 413.22 211.09 411.81 219.13 416.45" style="fill:#fafafa"></polygon><path d="M210.67,419.38a8.78,8.78,0,0,1,5.93.49c1.4.8,1,1.9-.85,2.44a8.74,8.74,0,0,1-5.92-.49C208.43,421,208.81,419.92,210.67,419.38Z" style="fill:#e0e0e0"></path><path d="M216.17,418.32a5.63,5.63,0,0,1,1.05.46,2.44,2.44,0,0,1,1.46,2.4,2.13,2.13,0,0,1-.24.73l4.08,2.35,7.61-1.46-9.3-5.37Z" style="fill:#e0e0e0"></path><polygon points="219.13 416.45 213.92 417.35 211.24 417.72 202.22 412.54 208.98 410.59 219.13 416.45" style="fill:#e0e0e0"></polygon><path d="M188.69,416.45l12.7,7.33,7.56-1a2.31,2.31,0,0,1-1.2-2.23,1.9,1.9,0,0,1,.23-.73l-10.27-5.94Z" style="fill:#e0e0e0"></path><path d="M202.92,424.66l6.06,3.5,10.18-2-4.24-2.43,0,0h0a11.09,11.09,0,0,1-1.43.09,10.05,10.05,0,0,1-2.89-.39h0Z" style="fill:#e0e0e0"></path><polygon points="231.83 423.78 247.04 432.56 239.43 434.03 224.22 425.24 231.83 423.78" style="fill:#e0e0e0"></polygon><polygon points="208.98 428.17 219.15 426.21 234.36 435 224.21 436.96 208.98 428.17" style="fill:#e0e0e0"></polygon><polygon points="248.73 433.54 254.65 436.96 247.89 438.91 241.12 435 248.73 433.54" style="fill:#e0e0e0"></polygon><polygon points="225.9 437.93 236.05 435.98 243.38 440.21 234.35 442.81 225.9 437.93" style="fill:#e0e0e0"></polygon><polygon points="198.84 428.17 193.18 438.57 178.54 430.12 192.07 424.26 198.84 428.17" style="fill:#fafafa"></polygon><polygon points="225.9 437.93 224.21 440.86 224.74 450.93 234.35 442.81 225.9 437.93" style="fill:#fafafa"></polygon><polygon points="224.21 436.96 222.51 439.89 201.3 427.64 202.91 424.66 224.21 436.96" style="fill:#fafafa"></polygon><polygon points="201.39 423.78 199.68 426.7 185.94 418.77 188.68 416.45 201.39 423.78" style="fill:#fafafa"></polygon><polygon points="200.53 429.14 221.67 441.35 222.21 453.06 220.61 454.41 194.86 439.54 200.53 429.14" style="fill:#fafafa"></polygon><polygon points="190.38 423.28 184.56 419.93 174.94 428.05 176.84 429.14 190.38 423.28" style="fill:#fafafa"></polygon><polygon points="217.86 456.73 210.68 452.58 207.29 458.44 212.37 461.37 217.86 456.73" style="fill:#fafafa"></polygon><rect x="200.53" y="448.67" width="6.77" height="7.81" transform="translate(-289.99 402.88) rotate(-60)" style="fill:#fafafa"></rect><polygon points="200.53 446.72 193.24 442.51 190 448.46 197.14 452.58 200.53 446.72" style="fill:#fafafa"></polygon><polygon points="188.34 447.5 191.57 441.55 176.84 433.05 169.45 432.68 166.7 435 188.34 447.5" style="fill:#fafafa"></polygon><polygon points="173.57 429.2 176.84 431.1 171.57 430.89 173.57 429.2" style="fill:#fafafa"></polygon><path d="M180.12,450.69a8.74,8.74,0,0,1,5.92.49c1.4.81,1,1.9-.84,2.44a8.74,8.74,0,0,1-5.92-.49C177.88,452.32,178.25,451.23,180.12,450.69Z" style="fill:#e0e0e0"></path><polygon points="207.29 458.44 200.53 460.39 205.91 463.5 212.37 461.37 207.29 458.44" style="fill:#e0e0e0"></polygon><polygon points="205.6 457.46 198.83 459.42 192.07 455.51 198.84 453.56 205.6 457.46" style="fill:#e0e0e0"></polygon><path d="M197.14,452.58l-6.76,1.95-2.26-1.3s1.07-2.39-2.09-3.39l4-1.38Z" style="fill:#e0e0e0"></path><path d="M188.34,447.5l-4.17,1.5a13.83,13.83,0,0,0-3.38,0l-12.4-7.16,6.76-1.95Z" style="fill:#e0e0e0"></path><polygon points="173.46 438.91 166.7 440.86 160.24 437.13 166.7 435 173.46 438.91" style="fill:#e0e0e0"></polygon><polygon points="155.93 438.55 166.7 444.77 158.24 447.7 147.32 441.39 155.93 438.55" style="fill:#e0e0e0"></polygon><path d="M168.39,445.75l8.89,5.13a2.44,2.44,0,0,0,.31,3l-5.82,1.6-11.84-6.84,8.25-2.81" style="fill:#e0e0e0"></path><path d="M173.46,456.49l6-1.52a8.63,8.63,0,0,0,5.33.25l9,5.17,1.69,6.56-2.46.81Z" style="fill:#e0e0e0"></path><polygon points="195.45 461.37 196.87 466.48 201.6 464.92 195.45 461.37" style="fill:#e0e0e0"></polygon></g></g><g id="freepik--Character--inject-44"><g id="freepik--character--inject-44"><g id="freepik--Chartacter--inject-44"><g id="freepik--Bottom--inject-44"><path d="M382,338.21l1.29-12-13.76.91s.21,6.52.4,10.22c.11,2.18-2.83,6.23-2.83,6.23s6.46,3.47,9.93,2.26,5.29-5.53,5.24-6.46S382,338.21,382,338.21Z" style="fill:#ffa8a7"></path><path d="M348.83,357a3,3,0,0,0,.58,3.2c1.35,1.12,5.31,3,10.6,2.44s8.17-2,10.31-3.64,5.14-3.9,7.54-4.35a15,15,0,0,0,5.37-1.95c.72-.63.66-3.49.66-3.49Z" style="fill:#263238"></path><path d="M382,338.19a.85.85,0,0,1,.79.68c.15.79.28,3.08.61,4.38a21.58,21.58,0,0,1,.41,6.93c-.31,1.46-3.95,2.41-6.27,3.2a29.9,29.9,0,0,0-7.56,4.29,21.94,21.94,0,0,1-11.2,3.7c-4.07-.1-8.64-1.41-9.66-3.2-1.26-2.2-2.17-4.76,3.91-7.27,1.15-.48,5.2-2.63,6.58-3.42,3.74-2.11,6.37-4.07,8.14-7.9a2.16,2.16,0,0,1,.89-1.16,2,2,0,0,1,1.17-.08,43,43,0,0,1,5.92,1.16c.8.38,1.94.82,1.91,1.79a3.13,3.13,0,0,1-.24,1c-.08.2-.14.46,0,.58s.41,0,.57-.14a14.88,14.88,0,0,0,1.66-1.8,5.13,5.13,0,0,1,1-.89c.33-.24.75-.35,1-.61S381.94,338.65,382,338.19Z" style="fill:#455a64"></path><path d="M370,357.67c1.07-.79,2.2-1.56,3.33-2.24h0s-7.16,3.91-10,2c-1.83-1.21-.93-2.63-.88-3.09s-6.42-3.8-8.21-4h0c-.5.25-.92.45-1.19.56-6.08,2.51-5.17,5.07-3.91,7.27,1,1.79,4.32,3.22,9.58,3.31C362.11,361.54,367.44,359.55,370,357.67Z" style="fill:#37474f"></path><path d="M362.92,353c-3.78,1.34-2.18,2-1.14,2.18s7.43-3.18,11.33-6c4.06-2.9,6.65-6.11,8.16-7.18.56-.4,1.17-.89,1.71-1.35-.08-.77-.15-1.48-.22-1.85a.85.85,0,0,0-.79-.68c0,.46,0,.88-.32,1.22s-.71.37-1,.61a5.13,5.13,0,0,0-1,.89,14.88,14.88,0,0,1-1.66,1.8C374.64,346.55,366.7,351.7,362.92,353Z" style="fill:#37474f"></path><path d="M362.06,354.71a.42.42,0,0,0,.24-.07.34.34,0,0,0,.06-.49c-1-1.23-6-4.2-8.78-4a.35.35,0,1,0,.06.69c2.59-.21,7.31,2.72,8.13,3.7A.37.37,0,0,0,362.06,354.71Z" style="fill:#263238"></path><path d="M365.36,352.88a.34.34,0,0,0,.24-.07.33.33,0,0,0,.06-.49c-1-1.23-6-4.19-8.78-4a.36.36,0,0,0-.33.38.35.35,0,0,0,.4.31c2.58-.21,7.3,2.73,8.13,3.7A.35.35,0,0,0,365.36,352.88Z" style="fill:#263238"></path><path d="M368.67,351.15a.33.33,0,0,0,.23-.07.33.33,0,0,0,.06-.49c-1-1.23-6-4.2-8.78-4a.35.35,0,1,0,.07.69c2.59-.21,7.31,2.73,8.13,3.7A.36.36,0,0,0,368.67,351.15Z" style="fill:#263238"></path><path d="M371.74,349.17a.4.4,0,0,0,.23-.08.33.33,0,0,0,.06-.49c-1-1.23-6-4.19-8.78-4a.36.36,0,0,0-.33.38.36.36,0,0,0,.4.32c2.58-.22,7.31,2.72,8.13,3.69A.4.4,0,0,0,371.74,349.17Z" style="fill:#263238"></path><path d="M374.74,347.18a.39.39,0,0,0,.23-.07.33.33,0,0,0,.07-.49c-1.43-1.75-6.65-4.24-9.41-4a.36.36,0,0,0-.34.38.38.38,0,0,0,.41.32c2.49-.21,7.48,2.18,8.75,3.73A.37.37,0,0,0,374.74,347.18Z" style="fill:#263238"></path><path d="M409.17,344.77,406,333.38l14-2.17.63,11s1.49,3.94.64,5.39-10.17,3.09-11,2.14S409.17,344.77,409.17,344.77Z" style="fill:#ffa8a7"></path><path d="M410.61,369.6c.46,3.53,1.23,5.8,2.78,7.7s4.28,2.18,7,1.2,6.07-3.1,6.65-6.27a17.27,17.27,0,0,0-.53-8.48Z" style="fill:#263238"></path><path d="M420.66,342.23c1.13-.07.91,4.78,1.85,9.47,1,5,2.88,6.92,3.76,11.05,1,4.7.86,6.89-.86,10.05s-8.25,6.94-11.82,3.23c-2.91-3-3.26-6.77-3.31-11.61a109.86,109.86,0,0,0-.52-12.24c-.45-3.57-1.53-6.74-.58-7.27.11.52.22,1.18.33,1.69s.32,2.32.95,2.25a6.79,6.79,0,0,0-.07-1.35,1.53,1.53,0,0,1,.23-1.21,5.24,5.24,0,0,1,1.8-.94c1.09-.35,3-.78,4.16-1,.55-.12,1.11-.22,1.67-.29a4.58,4.58,0,0,1,1.43,0,.87.87,0,0,1,.64.4,1.43,1.43,0,0,1,.09.54,3.17,3.17,0,0,0,.21,1c0,.14.17.29.32.24a.31.31,0,0,0,.17-.32c0-.58-.14-1-.22-1.66,0-.31-.11-.72-.14-1S420.71,342.54,420.66,342.23Z" style="fill:#455a64"></path><path d="M425.93,361.41c.15.68,1.1,5.18-.25,6.2s-2.54-2.39-2.54-2.39-3.63-.48-8.71,2.25c.32.71-.33,3.27-1.79,2.95s-2.35-5.51-2.36-5.58c.08,4.63.48,8.25,3.31,11.19,3.57,3.71,10.11-.06,11.82-3.23s1.87-5.35.86-10.05C426.17,362.27,426.05,361.83,425.93,361.41Z" style="fill:#37474f"></path><path d="M422.76,365.58c.13,1.74,2,.89,1.95-1.58s-1.95-8.08-2.2-12.3c-.4-5.79-.72-9.54-1.85-9.47,0,.06,0,.12,0,.18l.3,2.41c0,.35.11.66.13,1,.25,3.54.39,10.42.94,13.62A51.11,51.11,0,0,1,422.76,365.58Z" style="fill:#37474f"></path><path d="M415,367.34a49.69,49.69,0,0,1-1.45-5.95c-.59-3.16-2.57-9.47-3.55-12.87a7.64,7.64,0,0,1-.52-1.92c-.1-.48-.21-1.08-.31-1.58l0-.11c-.68.4-.41,3.14,0,4.56s.85,2.93,1.33,5c1.22,4,1.42,10,2.2,12.34S415.51,369,415,367.34Z" style="fill:#37474f"></path><path d="M414.33,367.62l.15-.06a15.48,15.48,0,0,1,8.58-2,.46.46,0,0,0,.49-.33.34.34,0,0,0-.32-.41,16.19,16.19,0,0,0-9.18,2.11.37.37,0,0,0-.14.52A.39.39,0,0,0,414.33,367.62Z" style="fill:#263238"></path><path d="M413.16,364l.13-.05a19.1,19.1,0,0,1,9.61-2.21.45.45,0,0,0,.48-.34.34.34,0,0,0-.34-.4,19.69,19.69,0,0,0-10.15,2.33.37.37,0,0,0-.16.52A.4.4,0,0,0,413.16,364Z" style="fill:#263238"></path><path d="M422.41,358.18a.46.46,0,0,0,.33-.3.34.34,0,0,0-.29-.43c-5.12-.82-9.94,2.12-10.14,2.25a.36.36,0,0,0-.14.52.45.45,0,0,0,.57.08s4.73-2.89,9.49-2.11A.55.55,0,0,0,422.41,358.18Z" style="fill:#263238"></path><path d="M421.9,354.84a.44.44,0,0,0,.34-.29.34.34,0,0,0-.28-.44,14.93,14.93,0,0,0-10.35,2.25.37.37,0,0,0-.11.53.45.45,0,0,0,.58,0,14.23,14.23,0,0,1,9.64-2.08A.53.53,0,0,0,421.9,354.84Z" style="fill:#263238"></path><path d="M421.33,351.09a.45.45,0,0,0,.33-.28.34.34,0,0,0-.27-.44c-5.29-1-10.22,2.22-10.42,2.36a.36.36,0,0,0-.12.52.42.42,0,0,0,.57.06c.05,0,4.81-3.15,9.72-2.21A.41.41,0,0,0,421.33,351.09Z" style="fill:#263238"></path><path d="M412.1,224.51c2.63,27.92,3.85,66.2,3.85,66.2.22,2.12,1.75,5.73,2.93,16.19,1.25,11,1.29,26.63,1.29,26.63s-7.35,4.27-13.49,2.29c0,0-6.1-24.44-9.46-37.4-3.17-12.28-7.65-31-7.65-31L386.26,286s.55,8,.42,13.55c-.15,6.49-3.78,31.37-3.78,31.37s-7.24,4.87-13.66,0c0,0-1.91-36.37-2.23-44.17-.61-15.3-.5-45-.3-64.77Z" style="fill:#198257"></path><path d="M412.1,224.51c2.63,27.92,3.85,66.2,3.85,66.2.22,2.12,1.75,5.73,2.93,16.19,1.25,11,1.29,26.63,1.29,26.63s-7.35,4.27-13.49,2.29c0,0-6.1-24.44-9.46-37.4-3.17-12.28-7.65-31-7.65-31L386.26,286s.55,8,.42,13.55c-.15,6.49-3.78,31.37-3.78,31.37s-7.24,4.87-13.66,0c0,0-1.91-36.37-2.23-44.17-.61-15.3-.5-45-.3-64.77Z" style="opacity:0.30000000000000004"></path><path d="M389.57,267.44l-3.49-19.84s-7.41-1-11.26-4.39c0,0,2.52,4.57,9.53,6.25l3.44,18.06L386.26,286Z" style="opacity:0.2"></path><path d="M420.34,333.84c-1.5,2.11-8.26,4.31-13.75,2.5l-1-4.28c4.15,1.26,11.3-.13,14.62-2.9Z" style="fill:#198257"></path><path d="M382.94,331.62c-1.83,1.81-8.69,2.8-13.8.05l-.28-4.4c3.87,2,10.94,2,14.68-.17Z" style="fill:#198257"></path></g><g id="freepik--Top--inject-44"><g id="freepik--Arm--inject-44"><path d="M342.63,206.43c2.63-.17,16.57-1.62,16.57-1.62l3.64,12.06c-7.52-.42-14,.08-20.95,0a32,32,0,0,0-5.89.49c-1.47.24-4.8,1.05-6.27,1.13-7.33.39-8.72-.18-11.77-3.64a1.88,1.88,0,0,1-1.16-2.29c-1-1.17.1-2.43,2-2.69s5.29-.69,7.92-1.17c1.3-.2,2.36-.69.38-1.12s-4.76-.87-4.37-3.47a.43.43,0,0,1,.45-.37c5.09.39,8.15.34,11.88,1.81C338.06,206.72,339.4,206.63,342.63,206.43Z" style="fill:#ffa8a7"></path><path d="M359.28,204.43S363,185.55,363.94,181s1.81-9.78,10.18-11.93l5.93,17.23s-5.29,16.41-7.95,23.94c-1.93,5.46-1.77,6.76-6.39,6.83s-15.08-.32-15.08-.32c.46-4.13-.1-9.2-1.67-10.92Z" style="fill:#37474f"></path></g><g id="freepik--box--inject-44"><g id="freepik--box--inject-44"><g id="freepik--back-box--inject-44"><polygon points="306.45 225.56 337.57 207.6 368.69 225.56 337.57 243.53 306.45 225.56"></polygon><polygon points="337.57 207.6 337.57 172.04 305.72 190.43 336.45 208.24 337.57 207.6" style="fill:#37474f"></polygon><polygon points="337.57 172.04 337.57 207.6 338.68 208.24 369.41 190.43 337.57 172.04" style="fill:#263238"></polygon></g><g id="freepik--front-box--inject-44"><polygon points="305.72 190.43 305.72 225.14 337.57 243.53 337.57 208.88 305.72 190.43" style="fill:#263238"></polygon><polygon points="337.57 208.88 337.57 243.53 369.41 225.14 369.41 190.43 337.57 208.88" style="fill:#37474f"></polygon><polygon points="337.57 208.88 338.29 242.2 364.97 227.71 337.57 243.53 337.57 208.88" style="fill:#455a64"></polygon></g><path d="M342,232.38a.72.72,0,0,1-.38-.1,1.14,1.14,0,0,1-.47-1v-3.07h0v-.23l.16,0,2.4-1.42V230a2.76,2.76,0,0,1-1.18,2.24A1,1,0,0,1,342,232.38Zm-.46-4v2.84a.8.8,0,0,0,.27.71.55.55,0,0,0,.53-.06,2.44,2.44,0,0,0,1-1.91v-.25h-.89l-.18-1.2Zm1.23.95h.56v-2.12l-1.44.84.71.13Z" style="fill:#e0e0e0"></path><path d="M342.39,234.83a.2.2,0,0,1-.19-.19v-2.58a.2.2,0,1,1,.39,0v2.58A.2.2,0,0,1,342.39,234.83Z" style="fill:#e0e0e0"></path><path d="M341.27,235.48a.22.22,0,0,1-.17-.1.19.19,0,0,1,.08-.26l2.24-1.3a.19.19,0,0,1,.26.07.21.21,0,0,1-.07.27l-2.24,1.29A.17.17,0,0,1,341.27,235.48Z" style="fill:#e0e0e0"></path><path d="M349.26,231a.36.36,0,0,1-.21-.05.49.49,0,0,1-.23-.46V230a.19.19,0,1,1,.38,0v.53c0,.08,0,.12,0,.13a.26.26,0,0,0,.13,0,1.12,1.12,0,0,0,.35-.87v-3.43a.19.19,0,0,1,.2-.19.19.19,0,0,1,.19.19v3.43a1.44,1.44,0,0,1-.55,1.2A.58.58,0,0,1,349.26,231Z" style="fill:#e0e0e0"></path><path d="M347.23,228v-.34a5.44,5.44,0,0,1,2.46-4.27,1.63,1.63,0,0,1,2.67,1.53v.11Zm3.62-4.58a1.94,1.94,0,0,0-1,.3,5.08,5.08,0,0,0-2.26,3.6l4.34-2.51a1.42,1.42,0,0,0-.6-1.26A1,1,0,0,0,350.85,223.46Z" style="fill:#e0e0e0"></path><path d="M356.19,227.08a.18.18,0,0,1-.19-.19v-6.57a.19.19,0,0,1,.38,0v6.57A.18.18,0,0,1,356.19,227.08Z" style="fill:#e0e0e0"></path><path d="M355.63,221.82l-.08,0a.19.19,0,0,1-.1-.25l.69-1.59.76.89a.19.19,0,1,1-.29.25l-.36-.42-.45,1A.18.18,0,0,1,355.63,221.82Z" style="fill:#e0e0e0"></path><path d="M358,226.07a.2.2,0,0,1-.2-.2V219.3a.2.2,0,0,1,.2-.19.2.2,0,0,1,.19.19v6.57A.2.2,0,0,1,358,226.07Z" style="fill:#e0e0e0"></path><path d="M357.41,220.8h-.08a.21.21,0,0,1-.1-.26l.69-1.59.77.89a.19.19,0,0,1,0,.27.2.2,0,0,1-.28,0l-.36-.42-.44,1A.2.2,0,0,1,357.41,220.8Z" style="fill:#e0e0e0"></path><path d="M313.59,215.07l10,5.79a1,1,0,0,1,.45.79v7c0,.57-.41.81-.9.52l-10-5.79a1,1,0,0,1-.45-.79v-7C312.69,215,313.09,214.78,313.59,215.07Z" style="fill:#fafafa"></path><polygon points="313.34 216.16 313.68 216.35 313.68 222.5 313.34 222.31 313.34 216.16" style="fill:#455a64"></polygon><polygon points="314.73 216.96 315.32 217.3 315.32 223.46 314.73 223.11 314.73 216.96" style="fill:#455a64"></polygon><polygon points="316.12 217.76 316.46 217.96 316.46 224.11 316.12 223.91 316.12 217.76" style="fill:#455a64"></polygon><polygon points="317.17 218.35 317.85 218.76 317.85 224.91 317.17 224.5 317.17 218.35" style="fill:#455a64"></polygon><polygon points="318.9 219.36 319.24 219.56 319.24 225.71 318.89 225.51 318.9 219.36" style="fill:#455a64"></polygon><polygon points="319.9 219.93 320.63 220.36 320.63 226.51 319.9 226.08 319.9 219.93" style="fill:#455a64"></polygon><polygon points="321.67 220.97 322.01 221.16 322.01 227.31 321.67 227.12 321.67 220.97" style="fill:#455a64"></polygon><polygon points="322.47 221.42 322.64 221.51 322.64 227.67 322.47 227.57 322.47 221.42" style="fill:#455a64"></polygon><polygon points="321.04 220.63 321.21 220.73 321.21 226.88 321.04 226.78 321.04 220.63" style="fill:#455a64"></polygon><polygon points="318.24 218.99 318.41 219.09 318.41 225.24 318.24 225.14 318.24 218.99" style="fill:#455a64"></polygon><polygon points="316.71 218.11 316.88 218.21 316.88 224.36 316.71 224.26 316.71 218.11" style="fill:#455a64"></polygon><polygon points="315.61 217.5 315.78 217.6 315.78 223.75 315.61 223.66 315.61 217.5" style="fill:#455a64"></polygon><polygon points="314.12 216.6 314.29 216.7 314.29 222.85 314.12 222.75 314.12 216.6" style="fill:#455a64"></polygon><polygon points="323.06 221.77 323.4 221.96 323.4 228.12 323.06 227.92 323.06 221.77" style="fill:#455a64"></polygon></g><polygon points="337.57 172.04 305.72 190.43 337.57 208.88 369.41 190.43 337.57 172.04" style="fill:#455a64"></polygon><polygon points="305.72 190.43 337.57 207.56 369.41 190.43 337.57 208.88 305.72 190.43" style="fill:#fff;opacity:0.1"></polygon><polygon points="319.87 182.26 351.75 200.66 357.41 197.39 325.54 178.99 319.87 182.26" style="fill:#198257"></polygon><polygon points="357.41 197.39 357.41 204.58 356.73 204.19 356.01 205.42 355.3 205 354.59 206.24 353.88 205.82 353.17 207.05 352.46 206.65 351.75 207.87 351.75 200.66 357.41 197.39" style="fill:#198257"></polygon><polygon points="357.41 197.39 357.41 204.58 356.73 204.19 356.01 205.42 355.3 205 354.59 206.24 353.88 205.82 353.17 207.05 352.46 206.65 351.75 207.87 351.75 200.66 357.41 197.39" style="opacity:0.25"></polygon></g><path id="freepik--Chest--inject-44" d="M399.38,166.75c2.82.58,6.39,1.31,10,2.3a37.26,37.26,0,0,1,9.22,3.43,146.46,146.46,0,0,1-2.73,26.07c-.62,2.85-2.69,10.74-3,16.78a95.65,95.65,0,0,0,.51,18.85s-9.31,6.91-29.21,5.41c-15.62-1.17-17.65-6.92-17.65-6.92s.29-26,.69-37.56c.54-15.13,3.62-23.37,7-26l11.75-2.19Z" style="fill:#455a64"></path><g id="freepik--Head--inject-44"><path d="M403.12,135.62s2.34.18,3.87,3.12c.76,1.48,1.32,4.17-.79,11.88a31.37,31.37,0,0,1-3.7,8.51,3.81,3.81,0,0,1-2.22,1.76l.16-5.92.22-4.13s-3.33-3-3.62-6a9.5,9.5,0,0,1,1.12-6Z" style="fill:#37474f"></path><path d="M403.93,135.82c-.58-3.33-4.8-7.3-12.95-7.74-6.67-.36-10.41,2-12.9,5.83-2.77,4.2-.79,8.94-.79,8.94l21-1.37Z" style="fill:#37474f"></path><path d="M405.85,156.7c-3.07,1.49-4.47-.93-4.47-.93L400.92,168c-5.89,7.89-21.62,5-15.17-.87v-2.78a18.71,18.71,0,0,1-2.66-.26c-2.71-.43-4.42-2.59-5.23-5.54a41.2,41.2,0,0,1,0-18.73c.32-1.43.93-3,2.25-3.64,3.26-1.62,6.28.71,10.82,2.48,1.88.73,6.44,1.06,7.65.49-1.59,1.75-1.57,7.28.76,9.53a5.24,5.24,0,0,0,1.17,1.52c1,.86,1.81-1.37,2.64-2.24a3.42,3.42,0,0,1,5.33,1.23A5.57,5.57,0,0,1,405.85,156.7Z" style="fill:#ffa8a7"></path><path d="M385.76,164.33A25,25,0,0,0,394.6,163c2.1-.89,4-3.74,4.58-6.56,0,2.27-1,6.3-4.19,8s-6.9,1.76-9.24,1.81Z" style="fill:#f28f8f"></path><path d="M390.06,143.9l3.25.36a1.7,1.7,0,0,0-1.48-1.85A1.6,1.6,0,0,0,390.06,143.9Z" style="fill:#37474f"></path><path d="M379.63,143.11l3.06-1.22a1.59,1.59,0,0,0-2.09-1A1.74,1.74,0,0,0,379.63,143.11Z" style="fill:#37474f"></path><path d="M392.74,147a1.33,1.33,0,1,1-1.28-1.38A1.34,1.34,0,0,1,392.74,147Z" style="fill:#263238"></path><path d="M382.19,146.43a1.33,1.33,0,1,1-1.28-1.38A1.21,1.21,0,0,1,382.19,146.43Z" style="fill:#263238"></path><path d="M387.35,144.27l-1.1,8.49-4.48-1.66A19.77,19.77,0,0,1,387.35,144.27Z" style="fill:#f28f8f"></path><path d="M389.64,154.65l-3.46,1.14a1.8,1.8,0,0,0,2.27,1.23A1.91,1.91,0,0,0,389.64,154.65Z" style="fill:#b16668"></path><path d="M389.28,155.27a2.18,2.18,0,0,1,.44,0,1.8,1.8,0,0,1-1.85,1.87A1.69,1.69,0,0,1,389.28,155.27Z" style="fill:#f28f8f"></path></g><g id="freepik--Tablet--inject-44"><path d="M372.38,208.7h0l1-.93v0a1.14,1.14,0,0,1,1.05-.16l13.09,3a4.12,4.12,0,0,1,2.58,2.23L399,235.59a1,1,0,0,1-.1,1.18h0l-1,.95h0a1.15,1.15,0,0,1-1.06.17l-13.08-3a4.09,4.09,0,0,1-2.58-2.23c-1.75-4.46-7.15-18.23-8.89-22.68A1,1,0,0,1,372.38,208.7Z" style="fill:#455a64"></path><path d="M387.72,212.19a4,4,0,0,1,1.35,1.64L398,236.51a1.1,1.1,0,0,1-.06,1.16l1-.89h0a1,1,0,0,0,.1-1.18l-8.89-22.69a4,4,0,0,0-1.25-1.55Z" style="fill:#263238"></path><path d="M398,236.51l-8.89-22.68a4.08,4.08,0,0,0-2.59-2.23l-13.08-3c-1-.24-1.56.37-1.17,1.37,1.74,4.45,7.14,18.22,8.89,22.68a4.09,4.09,0,0,0,2.58,2.23l13.08,3C397.82,238.12,398.35,237.51,398,236.51Z" style="fill:#37474f"></path><path d="M389.25,218.65l-1.67-4.24a.74.74,0,0,0-.48-.42l-2.1-.48c-.19,0-.29.07-.22.25l1.67,4.25a.8.8,0,0,0,.48.42l2.1.48C389.22,219,389.32,218.84,389.25,218.65Z" style="fill:#455a64"></path><path d="M387.52,215.44a2,2,0,0,0-1.23-1c-.5-.11-.76.16-.59.61a2,2,0,0,0,1.23,1C387.44,216.16,387.7,215.89,387.52,215.44Z" style="fill:#263238"></path><path d="M388.33,217.58a1.87,1.87,0,0,0-1.23-1c-.5-.12-.76.15-.58.61a1.87,1.87,0,0,0,1.23,1C388.25,218.31,388.51,218,388.33,217.58Z" style="fill:#263238"></path><path d="M393.35,221.31l.54,1.39a34.4,34.4,0,0,1-6,1c-.69,0-3.27-1.21-5.37-1.75s-3.45.71-2.37,1.55a14.35,14.35,0,0,0,1.83,1.27c-.88.88-1.49,1.7.29,3.2a2.35,2.35,0,0,0,.75,2.62,22.06,22.06,0,0,0,5.93,3.74c1.15.45,7.16.06,7.67-.22a37.89,37.89,0,0,0,4.57-3.19,33.81,33.81,0,0,1,6.08-3.37c1.83-.61,18.14-7.35,21-8.82s7.53-4.62,3.63-7.69-9.9-4.9-14.6-1.86c-3.41,2.2-12,7-15.88,9.26a4.85,4.85,0,0,1-3.48.72,25.67,25.67,0,0,0-5.42.08Z" style="fill:#ffa8a7"></path><path d="M413.66,170.6c7.46,2.14,9.72,3.47,11.25,7.51,2.48,6.57,8.17,29.06,8.48,34.93.16,2.89-13.77,3.37-13.77,3.37l-2.32-7.26s-4.81-16.41-5.9-19.88C410.16,185.35,408.73,174.4,413.66,170.6Z" style="fill:#ffa8a7"></path><path d="M382,224.74c.86.49,1.68,1,2.5,1.55.42.26.82.54,1.23.81a1.05,1.05,0,0,0,.57.24c.23,0,.46.06.7.08,1.93.14,3.89.14,5.84.3-1,.1-1.95.15-2.93.18a28.84,28.84,0,0,1-2.94-.05,6.39,6.39,0,0,1-.75-.09,1.54,1.54,0,0,1-.41-.12,2.24,2.24,0,0,1-.34-.22c-.39-.29-.79-.57-1.17-.87C383.49,226,382.72,225.38,382,224.74Z" style="fill:#f28f8f"></path><path d="M382.26,227.94c.81.55,1.61,1.1,2.44,1.61.42.25.83.51,1.25.75.21.11.42.25.63.35a2.65,2.65,0,0,0,.64.14c.94.13,1.92.15,2.89.2s2,.07,2.93.18a32.06,32.06,0,0,1-5.88.05,2.68,2.68,0,0,1-.78-.19c-.23-.12-.43-.25-.64-.38-.42-.26-.83-.53-1.23-.82A19.4,19.4,0,0,1,382.26,227.94Z" style="fill:#f28f8f"></path><path d="M384.59,231.83c.67.27,1.31.56,2,.79a9.6,9.6,0,0,0,2,.49,13.18,13.18,0,0,0,2.09,0,11.83,11.83,0,0,1,2.14.13l-2.12.24a8.67,8.67,0,0,1-2.16,0A9,9,0,0,1,384.59,231.83Z" style="fill:#f28f8f"></path><path d="M413.47,170.25c3.95,1.18,8.34,2.19,10.06,4.47s2.82,5.31,5.22,14.75,4.92,18.43,5,22.8-.91,4.49-5.39,6.86-13.67,5.41-13.67,5.41.39-7.57-6.49-10l8.75-5.35s-5.18-16.66-6.08-19.3S407.68,173.59,413.47,170.25Z" style="fill:#37474f"></path><path d="M417,209.15c2.32-1.35,5-3.08,8-2.64-1.86-1.29-5.87-.81-8.51,1.08Z" style="fill:#263238"></path></g><g id="freepik--Cap--inject-44"><path d="M378.27,136.77h.1c6-.79,13.05,1.05,18.66,4.5l.55.34.14.11a25.06,25.06,0,0,1,6.34,5.68,3.73,3.73,0,0,1,3,.2c.11-.35.47-1.84.52-2.12.95-5.52,2-12.12-10.26-17.06-8.29-3.33-15.9-1.19-17.88,4C379,133.51,378.66,135.6,378.27,136.77Z" style="fill:#455a64"></path><path d="M398,140.48a17.75,17.75,0,0,0-6.34-6.94c-3-2.06-9.64-2.84-12.61-3.1-5.19-.46-6.55.52-6.69,1.27,0,.18-.2,1-.24,1.2a.78.78,0,0,0,.06.51c.65,1.25,4.63,3.73,4.63,3.73,6.67-1.12,14.65.77,20.94,4.56Z" style="fill:#198257"></path><path d="M397.72,141.71a34.24,34.24,0,0,0-20.94-4.56s-4-2.48-4.63-3.73c-.35-.7.2-2.32,6.63-1.76,3,.27,9.56,1.05,12.6,3.1A17.74,17.74,0,0,1,397.72,141.71Z" style="fill:#37474f"></path></g></g></g></g></g><g id="freepik--speech-bubble--inject-44"><g id="freepik--speech-bubble--inject-44"><g id="freepik--speech-bubble--inject-44"><path d="M329.16,158.51l-6.1-3.59a1.8,1.8,0,0,1-.75-.88l-2.11-5.26,4.37-2.52-.13.39Z" style="fill:#198257"></path><path d="M329.16,158.51l-6.1-3.59a1.8,1.8,0,0,1-.75-.88l-2.11-5.26,4.37-2.52-.13.39Z" style="opacity:0.1"></path><path d="M384.28,42.49a7.87,7.87,0,0,0-3.56-6.16l-.78-.47a7.82,7.82,0,0,0-7.11,0L304.45,75.35a7.87,7.87,0,0,0-3.56,6.16v65.18a7.88,7.88,0,0,0,3.56,6.16l.78.47a7.88,7.88,0,0,0,7.11,0l68.71-39.74c3.2-1.82,3.23-3.65,3.23-5.92Z" style="fill:#198257"></path><path d="M384.18,41.47c-.41-1.51-1.81-2-3.46-1l-68.38,39.5a7.06,7.06,0,0,0-2.51,2.65h0a7.41,7.41,0,0,0-1,3.5v65.18c0,2,1.21,3,2.83,2.39l.11,0a3.84,3.84,0,0,0,.61-.3l11.57-6.68,4.84,11.43a1,1,0,0,0,1.83-.12l5.17-18.16,45.3-26.2c3.2-1.82,3.23-3.65,3.23-5.92V42.49A6,6,0,0,0,384.18,41.47Z" style="fill:#fafafa"></path><path d="M382.32,41c.28,0,.66.08.86.73a4.45,4.45,0,0,1,.07.79v65.17c0,2.18,0,3.49-2.71,5l-45.31,26.2-.36.21-.11.4-5.13,18-4.78-11.28-.45-1.07-1,.58-11.56,6.69a4.78,4.78,0,0,1-.5.24h0a1.55,1.55,0,0,1-.54.1c-.85,0-.94-1.06-.94-1.52V86.08a6.08,6.08,0,0,1,.7-2.61l.22-.39a6.11,6.11,0,0,1,2.12-2.26l68.38-39.5a2.29,2.29,0,0,1,1.09-.35m0-1a3.27,3.27,0,0,0-1.6.48l-68.38,39.5a7.06,7.06,0,0,0-2.51,2.65h0a7.41,7.41,0,0,0-1,3.5v65.18c0,1.61.79,2.55,2,2.55a2.51,2.51,0,0,0,.87-.16l.11,0a3.84,3.84,0,0,0,.61-.3l11.57-6.68,4.84,11.43a1,1,0,0,0,.89.59,1,1,0,0,0,.94-.71l5.17-18.16,45.3-26.2c3.2-1.82,3.23-3.65,3.23-5.92V42.49a6,6,0,0,0-.1-1A1.88,1.88,0,0,0,382.32,40Z" style="fill:#198257"></path><path d="M300.89,146.69a7.88,7.88,0,0,0,3.56,6.16l.78.47a8,8,0,0,0,6.5.3c-1.67.63-2.94-.33-2.94-2.36V86.09a7.21,7.21,0,0,1,1-3.51L301.94,78a7.19,7.19,0,0,0-1.05,3.5Z" style="opacity:0.1"></path><path d="M384.18,41.48c-.42-1.51-1.81-2-3.46-1l-68.38,39.5a7.09,7.09,0,0,0-2.51,2.66L302,78a7,7,0,0,1,2.5-2.65l68.37-39.5a7.9,7.9,0,0,1,7.12,0l.78.47A7.86,7.86,0,0,1,384.18,41.48Z" style="fill:#fff;opacity:0.30000000000000004"></path></g><path d="M313.53,96.35a.65.65,0,0,1-.07-.36V87.08a1.32,1.32,0,0,1,.07-.45.53.53,0,0,1,.25-.26l1.68-1c.78-.45,1.37-.38,1.75.21A6.8,6.8,0,0,1,317.8,89a11.87,11.87,0,0,1-.59,4.1,4.06,4.06,0,0,1-1.75,2.23l-1.68,1C313.66,96.4,313.58,96.4,313.53,96.35Zm1.89-2.56a2,2,0,0,0,.84-1.28,10.17,10.17,0,0,0,.28-2.76,7,7,0,0,0-.28-2.44c-.18-.41-.46-.52-.84-.3l-.71.41V94.2Z" style="fill:#455a64"></path><path d="M318.87,93.27a.57.57,0,0,1-.07-.36V84a1.06,1.06,0,0,1,.07-.44.55.55,0,0,1,.24-.26l2.7-1.56c.09,0,.15,0,.19,0a1.34,1.34,0,0,1,.05.43v.37a2.2,2.2,0,0,1-.05.5.41.41,0,0,1-.19.25l-1.78,1v2.48l1.59-.92a.11.11,0,0,1,.18,0,1.09,1.09,0,0,1,.06.43v.38a1.63,1.63,0,0,1-.06.49.47.47,0,0,1-.18.26l-1.59.91v2.71l1.79-1c.08,0,.14,0,.18,0a1.37,1.37,0,0,1,.05.44v.37a2,2,0,0,1-.05.5.44.44,0,0,1-.18.25l-2.71,1.56C319,93.32,318.92,93.32,318.87,93.27Z" style="fill:#455a64"></path><path d="M323.1,90.83a.55.55,0,0,1-.08-.36V81.41a.8.8,0,0,1,.47-.68l.29-.17a.6.6,0,0,1,.36-.11c.07,0,.11.11.11.25v8l1.57-.91c.09,0,.15,0,.19,0a1.16,1.16,0,0,1,.05.44v.37a1.67,1.67,0,0,1-.05.49.44.44,0,0,1-.19.26l-2.48,1.43C323.23,90.88,323.15,90.88,323.1,90.83Z" style="fill:#455a64"></path><path d="M326.8,88.43v-9.2a.8.8,0,0,1,.47-.7l.3-.17c.31-.18.46-.13.46.16v9.2a.79.79,0,0,1-.46.69l-.3.18C327,88.77,326.8,88.72,326.8,88.43Z" style="fill:#455a64"></path><path d="M330.22,86.6l-1.47-8.38a1.12,1.12,0,0,1,0-.22.48.48,0,0,1,.12-.28,1.41,1.41,0,0,1,.36-.28l.28-.16c.26-.16.41-.13.44.08l.95,6.29.08.85,0,0,.08-1,1-7.39a.8.8,0,0,1,.45-.6l.26-.15c.32-.19.48-.18.48,0s0,.14,0,.25l-1.49,10.08a.76.76,0,0,1-.44.53l-.61.35C330.4,86.76,330.25,86.76,330.22,86.6Z" style="fill:#455a64"></path><path d="M334,84.54a.57.57,0,0,1-.07-.36V75.26a1.1,1.1,0,0,1,.07-.44.55.55,0,0,1,.24-.26l2.7-1.56c.09,0,.15,0,.19,0a1.34,1.34,0,0,1,.05.43v.37a2.2,2.2,0,0,1-.05.5.41.41,0,0,1-.19.25l-1.78,1V78.1l1.59-.92a.11.11,0,0,1,.18,0,1.11,1.11,0,0,1,.06.44V78a1.66,1.66,0,0,1-.06.5.47.47,0,0,1-.18.26l-1.59.91V82.4l1.79-1c.08,0,.14,0,.18,0a1.25,1.25,0,0,1,.05.43v.37a2,2,0,0,1-.05.5.44.44,0,0,1-.18.25l-2.71,1.56C334.12,84.59,334,84.59,334,84.54Z" style="fill:#455a64"></path><path d="M338.12,81.89v-9a1.17,1.17,0,0,1,.08-.45.65.65,0,0,1,.25-.27l1.49-.86c1.24-.71,1.86-.17,1.86,1.63a4.87,4.87,0,0,1-.87,2.91v.06c.24.07.45.46.63,1.19l.55,2.43s0,0,0,.08,0,.06,0,.08c0,.22-.17.43-.5.62l-.27.16c-.29.16-.45.15-.48,0l-.51-2.44a1,1,0,0,0-.25-.53c-.1-.06-.25,0-.44.07l-.35.2v3.52a.81.81,0,0,1-.49.69l-.24.15C338.28,82.21,338.12,82.17,338.12,81.89ZM340,75.55a1.1,1.1,0,0,0,.43-.63,3.47,3.47,0,0,0,.17-1.12,1.58,1.58,0,0,0-.17-.91c-.11-.15-.27-.16-.47,0l-.63.36v2.74Z" style="fill:#455a64"></path><path d="M343.77,78.63v-4l-1.47-4.17a.68.68,0,0,1-.07-.29c0-.18.16-.36.49-.55l.37-.22a1,1,0,0,1,.31-.12c.08,0,.12,0,.14.12l.88,3.16.87-4.19a.52.52,0,0,1,.15-.27,1.31,1.31,0,0,1,.31-.23l.3-.18c.34-.19.51-.2.51,0a2,2,0,0,1-.07.37L345,74v3.94a.78.78,0,0,1-.47.69l-.29.16C343.93,79,343.77,78.9,343.77,78.63Z" style="fill:#455a64"></path><path d="M348,76.34s0-.11,0-.25l1.52-10a.9.9,0,0,1,.5-.65l.49-.28q.43-.25.51.06l1.5,8.27a1.41,1.41,0,0,1,0,.23c0,.19-.12.36-.38.51l-.37.21c-.26.15-.41.15-.43,0l-.3-1.78-1.61.93-.29,2.12a.73.73,0,0,1-.4.5l-.37.21C348.09,76.55,348,76.53,348,76.34Zm2.91-5.12-.5-3c-.05-.28-.08-.59-.11-.94l-.05,0c0,.39-.07.75-.11,1.08L349.6,72Z" style="fill:#455a64"></path><path d="M353.23,73.43a.57.57,0,0,1-.07-.36V64.15a1.1,1.1,0,0,1,.07-.44.55.55,0,0,1,.24-.26l1.69-1c.78-.45,1.37-.38,1.75.21a6.8,6.8,0,0,1,.59,3.43,11.87,11.87,0,0,1-.59,4.1,4.1,4.1,0,0,1-1.75,2.23l-1.69,1C353.36,73.48,353.28,73.48,353.23,73.43Zm1.89-2.56a2,2,0,0,0,.84-1.28,10.17,10.17,0,0,0,.28-2.76,6.92,6.92,0,0,0-.28-2.44q-.27-.63-.84-.3l-.71.41v6.78Z" style="fill:#455a64"></path><path d="M358.57,70.35a.57.57,0,0,1-.07-.36V61.07a1,1,0,0,1,.07-.44.62.62,0,0,1,.24-.27l1.68-1c.79-.45,1.37-.38,1.76.21a6.82,6.82,0,0,1,.58,3.43,11.89,11.89,0,0,1-.58,4.1,4.11,4.11,0,0,1-1.76,2.23l-1.68,1C358.7,70.4,358.62,70.4,358.57,70.35Zm1.89-2.56a2.12,2.12,0,0,0,.84-1.28,10.6,10.6,0,0,0,.28-2.76,7.17,7.17,0,0,0-.28-2.44q-.29-.63-.84-.3l-.72.41V68.2Z" style="fill:#455a64"></path><path d="M363.81,67.06V58a1.12,1.12,0,0,1,.08-.44.55.55,0,0,1,.25-.27l1.49-.86c1.23-.71,1.85-.17,1.85,1.63a4.93,4.93,0,0,1-.86,2.91V61c.24.06.45.46.62,1.19l.56,2.42,0,.09s0,0,0,.08c0,.22-.17.43-.5.62l-.27.15c-.29.17-.45.15-.48,0l-.51-2.44a1.07,1.07,0,0,0-.25-.52c-.1-.07-.25,0-.44.07l-.35.2v3.51a.81.81,0,0,1-.49.7l-.25.14C364,67.38,363.81,67.33,363.81,67.06Zm1.88-6.34a1.1,1.1,0,0,0,.43-.63,3.47,3.47,0,0,0,.17-1.12,1.67,1.67,0,0,0-.17-.91c-.11-.15-.27-.16-.47-.05l-.63.36v2.74Z" style="fill:#455a64"></path><path d="M368.65,64.53a.57.57,0,0,1-.07-.36V55.26a1.12,1.12,0,0,1,.07-.45.55.55,0,0,1,.24-.26l2.7-1.56c.09-.05.15,0,.19,0a1.34,1.34,0,0,1,.05.43v.37a2.2,2.2,0,0,1-.05.5.41.41,0,0,1-.19.25l-1.78,1v2.48l1.59-.92a.11.11,0,0,1,.18,0,1.09,1.09,0,0,1,.06.43V58a1.66,1.66,0,0,1-.06.5.47.47,0,0,1-.18.26l-1.59.91v2.71l1.79-1c.08,0,.14,0,.18,0a1.37,1.37,0,0,1,.05.44v.37a2,2,0,0,1-.05.5.44.44,0,0,1-.18.25l-2.71,1.56C368.78,64.58,368.7,64.58,368.65,64.53Z" style="fill:#455a64"></path><path d="M373.23,61.91a.79.79,0,0,1-.65-.15.67.67,0,0,1-.08-.18.61.61,0,0,1,0-.22,3.39,3.39,0,0,1,.11-.77.83.83,0,0,1,.25-.5.19.19,0,0,1,.18,0l.16,0A1,1,0,0,0,374,60a1.74,1.74,0,0,0,.6-.63,2.09,2.09,0,0,0,.24-1,1.13,1.13,0,0,0-.21-.8,1.55,1.55,0,0,0-.67-.31,2,2,0,0,1-.78-.33,1.44,1.44,0,0,1-.47-.67,3.67,3.67,0,0,1-.17-1.23,5,5,0,0,1,.54-2.32,3.56,3.56,0,0,1,1.39-1.54,2.05,2.05,0,0,1,.65-.24.86.86,0,0,1,.54,0,.33.33,0,0,1,.13.31,3.31,3.31,0,0,1-.11.75c-.06.3-.14.47-.23.52a.48.48,0,0,1-.21,0,1.18,1.18,0,0,0-.69.17,1.41,1.41,0,0,0-.59.64,2,2,0,0,0-.2.85,1.27,1.27,0,0,0,.13.65.58.58,0,0,0,.28.28c.11,0,.31.11.59.19a1.66,1.66,0,0,1,1,.63,2.76,2.76,0,0,1,.32,1.53,6.05,6.05,0,0,1-.23,1.63,4.77,4.77,0,0,1-.68,1.44,3.42,3.42,0,0,1-1.07,1A2.26,2.26,0,0,1,373.23,61.91Z" style="fill:#455a64"></path><path d="M377.27,59.58a.8.8,0,0,1-.65-.16.85.85,0,0,1-.08-.17.61.61,0,0,1,0-.22,3.31,3.31,0,0,1,.11-.77.83.83,0,0,1,.25-.5.19.19,0,0,1,.18,0l.16,0a1,1,0,0,0,.86-.1,1.59,1.59,0,0,0,.6-.63,2,2,0,0,0,.24-1,1.11,1.11,0,0,0-.21-.8,1.44,1.44,0,0,0-.67-.31,2.35,2.35,0,0,1-.78-.33,1.49,1.49,0,0,1-.47-.67,3.67,3.67,0,0,1-.17-1.23,5,5,0,0,1,.54-2.33,3.67,3.67,0,0,1,1.39-1.54,1.81,1.81,0,0,1,.65-.23.86.86,0,0,1,.54,0c.08,0,.13.14.13.31a3.39,3.39,0,0,1-.11.75c-.06.3-.14.47-.23.52a.37.37,0,0,1-.21,0,1.19,1.19,0,0,0-.69.18,1.39,1.39,0,0,0-.59.63,2,2,0,0,0-.2.86,1.29,1.29,0,0,0,.13.65.63.63,0,0,0,.28.28l.59.19a1.6,1.6,0,0,1,1,.62,2.8,2.8,0,0,1,.32,1.54,5.93,5.93,0,0,1-.23,1.62,4.72,4.72,0,0,1-.68,1.45,3.28,3.28,0,0,1-1.07,1A2.29,2.29,0,0,1,377.27,59.58Z" style="fill:#455a64"></path><polygon points="313.44 101.39 313.44 144.75 351.03 123.06 351.03 79.69 313.44 101.39" style="fill:#198257"></polygon><polygon points="313.44 101.39 313.44 144.75 351.03 123.06 351.03 79.69 313.44 101.39" style="fill:#fff;opacity:0.6000000000000001"></polygon><path d="M351,98.9l-10.24,11.91-2.29-8L351,88.27v-2.4l-13,15.19-1.63-5.66L348.69,81l-4.1,2.36-8.76,10.2-1.27-4.4-1.56.9,1.46,5.09-6.5,7.57,1-1.85a13.14,13.14,0,0,0,1.3-8.91l-.07-.25-1.58.91a13.38,13.38,0,0,1-1.37,8.59l-2.7,5.25-2.84-9.85-1.56.9.17.59-6.82,7.94v2.4l7.34-8.54,2.41,8.36.14.47-.17.33a13.13,13.13,0,0,0-1.3,8.91l.39,1.35-8.81,10.26V132l9.33-10.86,2.3,8-11.63,13.54v2.1l.51-.29,5.18-6,.75,2.61,1.56-.9-.95-3.29,5.09-5.93,1.69,5.86,4.6-2.66,10.31-12,1.46,5.2,1.55-.89-1.64-5.9,7.48-8.71v-2.4l-8,9.3-1.06-3.8-.67-2.31L351,101.3Zm-27.45,18.76a13.11,13.11,0,0,1,1.3-8.9v0l.19-.21L335,97l1.64,5.66-13,15.13Zm.55,1.91,13-15.13,2.29,8-13,15.13Zm17.55.73-13,15.1L327,129.33l13-15.14.67,2.32Z" style="fill:#fafafa"></path><path d="M334.64,104.77c0-2.61-1.72-3.74-3.85-2.51a8.8,8.8,0,0,0-3.84,7v.59c0,2,2.28,4.35,3.33,5.32a.52.52,0,0,0,.82-.15c.9-1.86,3.54-7.44,3.54-9.61Zm-3.85,4.15c-1.06.62-1.92.12-1.92-1.11a4.26,4.26,0,0,1,1.92-3.33c1.07-.61,1.93-.12,1.93,1.11A4.22,4.22,0,0,1,330.79,108.92Z" style="fill:#263238"></path><path d="M355.14,82.9a.77.77,0,0,1-.39-1.44l23-13.29a.77.77,0,0,1,.77,1.34l-23,13.29A.75.75,0,0,1,355.14,82.9Z" style="fill:#e0e0e0"></path><path d="M355.14,87.72a.77.77,0,0,1-.39-1.44l23-13.29a.77.77,0,0,1,.77,1.34l-23,13.29A.75.75,0,0,1,355.14,87.72Z" style="fill:#e0e0e0"></path><path d="M355.14,97.36a.77.77,0,0,1-.39-1.44l23-13.29a.77.77,0,0,1,.77,1.34l-23,13.28A.76.76,0,0,1,355.14,97.36Z" style="fill:#e0e0e0"></path><path d="M355.14,102.18a.77.77,0,0,1-.39-1.44l23-13.29a.77.77,0,0,1,.77,1.34l-23,13.28A.76.76,0,0,1,355.14,102.18Z" style="fill:#e0e0e0"></path><path d="M355.14,107a.77.77,0,0,1-.39-1.44l23-13.29a.77.77,0,0,1,.77,1.34l-23,13.28A.76.76,0,0,1,355.14,107Z" style="fill:#e0e0e0"></path><path d="M355.14,111.82a.77.77,0,0,1-.39-1.44l23-13.29a.77.77,0,1,1,.77,1.33l-23,13.29A.76.76,0,0,1,355.14,111.82Z" style="fill:#e0e0e0"></path><path d="M355.14,116.63a.76.76,0,0,1-.67-.38.77.77,0,0,1,.28-1l23-13.29a.77.77,0,1,1,.77,1.33l-23,13.29A.75.75,0,0,1,355.14,116.63Z" style="fill:#e0e0e0"></path></g></g></svg>